<?xml version="1.0" encoding="UTF-8"?>
<!-- Generator: Adobe Illustrator 22.0.1, SVG Export Plug-In . SVG Version: 6.00 Build 0)  -->
<svg version="1.1" id="Layer_1" xmlns="http://www.w3.org/2000/svg" xmlns:xlink="http://www.w3.org/1999/xlink" x="0px" y="0px" viewBox="0 0 114 114" style="enable-background:new 0 0 114 114;" xml:space="preserve">
<style type="text/css">
	.st0{fill:#FFB259;}
	.st1{fill:#6F2277;}
	.st2{fill:#FD495C;}
	.st3{fill:#009ADE;}
	.st4{fill:#003764;}
</style>
<g>
	<polygon class="st0" points="33.7,45.7 56.2,34.3 78.6,45.7 56.2,57.1  "/>
	<polygon class="st1" points="33.7,45.7 56.2,57.1 56.2,79.9 33.7,68.5  "/>
	<polygon class="st2" points="78.6,45.7 78.6,68.5 56.2,79.9 56.2,57.1  "/>
	<polygon class="st0" points="67.4,62.8 89.9,51.4 112.3,62.8 89.9,74.2  "/>
	<polygon class="st1" points="67.4,62.8 89.9,74.2 89.9,97.1 67.4,85.6  "/>
	<polygon class="st2" points="112.3,62.8 112.3,85.6 89.9,97.1 89.9,74.2  "/>
	<polygon class="st0" points="0,62.8 22.5,51.4 44.9,62.8 22.5,74.2  "/>
	<polygon class="st1" points="0,62.8 22.5,74.2 22.5,97.1 0,85.6  "/>
	<polygon class="st2" points="44.9,62.8 44.9,85.6 22.5,97.1 22.5,74.2  "/>
	<polygon class="st0" points="33.7,79.9 56.2,68.5 78.6,79.9 56.2,91.3  "/>
	<polygon class="st1" points="33.7,79.9 56.2,91.3 56.2,114.2 33.7,102.8  "/>
	<polygon class="st2" points="78.6,79.9 78.6,102.8 56.2,114.2 56.2,91.3  "/>
	<polygon class="st0" points="33.7,11.4 56.2,0 78.6,11.4 56.2,22.8  "/>
	<polygon class="st1" points="33.7,11.4 56.2,22.8 56.2,45.7 33.7,34.3  "/>
	<polygon class="st2" points="78.6,11.4 78.6,34.3 56.2,45.7 56.2,22.8  "/>
	<polygon class="st0" points="67.4,28.5 89.9,17.1 112.3,28.5 89.9,40  "/>
	<polygon class="st1" points="67.4,28.5 89.9,40 89.9,62.8 67.4,51.4  "/>
	<polygon class="st2" points="112.3,28.5 112.3,51.4 89.9,62.8 89.9,40  "/>
	<polygon class="st0" points="0,28.5 22.5,17.1 44.9,28.5 22.5,40  "/>
	<polygon class="st1" points="0,28.5 22.5,40 22.5,62.8 0,51.4  "/>
	<polygon class="st2" points="44.9,28.5 44.9,51.4 22.5,62.8 22.5,40  "/>
</g>
</svg>