<?xml version="1.0" encoding="UTF-8" standalone="no"?>
<svg height="579.0" viewBox="0 0 930.0 579.0" width="930.0" xmlns="http://www.w3.org/2000/svg">
    <style><![CDATA[
/* ----------------------------------------------------------------------- */
/* File: tautologies.css ------------------------------------------------- */
.sld-out .sld-arrow-in {visibility: hidden}
.sld-in .sld-arrow-out {visibility: hidden}
.sld-closed .sld-sw-open {visibility: hidden}
.sld-open .sld-sw-closed {visibility: hidden}
.sld-hidden-node {visibility: hidden}
.sld-top-feeder .sld-label {dominant-baseline: auto}
.sld-bottom-feeder .sld-label {dominant-baseline: hanging}
.sld-active-power .sld-label {dominant-baseline: mathematical}
.sld-reactive-power .sld-label {dominant-baseline: mathematical}
.sld-current .sld-label {dominant-baseline: mathematical}
/* ----------------------------------------------------------------------- */
/* File: baseVoltages.css ------------------------------------------------ */
.sld-vl300to500 {--sld-vl-color: #ff0000}
.sld-vl180to300 {--sld-vl-color: #228b22}
.sld-vl120to180 {--sld-vl-color: #01afaf}
.sld-vl70to120 {--sld-vl-color: #cc5500}
.sld-vl50to70 {--sld-vl-color: #a020f0}
.sld-vl30to50 {--sld-vl-color: #ff8290}
.sld-vl0to30 {--sld-vl-color: #abae28}
/* ----------------------------------------------------------------------- */
/* File : components.css ------------------------------------------------- */
/* Stroke black */
.sld-disconnector {stroke-width: 3; stroke: black; fill: none}
/* Stroke blue */
.sld-breaker {stroke-width: 2; stroke: blue; fill:white}
.sld-load-break-switch {stroke: blue; fill: white}
/* Stroke --sld-vl-color with fallback black */
.sld-bus-connection {fill: var(--sld-vl-color, black)}
.sld-cell-shape-flat .sld-bus-connection {visibility: hidden}
.sld-busbar-section {stroke: var(--sld-vl-color, black); stroke-width: 3; fill: none}
/* Stroke --sld-vl-color with fallback red */
.sld-wire {stroke: var(--sld-vl-color, #c80000); fill: none}
/* Stroke --sld-vl-color with fallback blue */
.sld-load {stroke: var(--sld-vl-color, blue); fill: none}
.sld-battery {stroke: var(--sld-vl-color, blue); fill: none}
.sld-generator {stroke: var(--sld-vl-color, blue); fill: none}
.sld-two-wt {stroke: var(--sld-vl-color, blue); fill: none}
.sld-three-wt {stroke: var(--sld-vl-color, blue); fill: none}
.sld-winding {stroke: var(--sld-vl-color, blue); fill: none}
.sld-capacitor {stroke: var(--sld-vl-color, blue); fill: none}
.sld-inductor {stroke: var(--sld-vl-color, blue); fill: none}
.sld-pst {stroke: var(--sld-vl-color, blue); fill: none}
.sld-pst-arrow {stroke: black; fill: none}
.sld-svc {stroke: var(--sld-vl-color, blue); fill: none}
.sld-vsc {stroke: var(--sld-vl-color, blue); font-size: 7.43px; fill: none}
.sld-lcc {stroke: var(--sld-vl-color, blue); font-size: 7.43px; fill: none}
.sld-ground {stroke: var(--sld-vl-color, blue); fill: none}
/* Stroke none & fill: --sld-vl-color */
.sld-node-infos {stroke: none; fill: var(--sld-vl-color, black)}
/* Stroke none & fill: black */
.sld-node {stroke: none; fill: black}
.sld-flash {stroke: none; fill: black}
.sld-lock {stroke: none; fill: black}
.sld-unknown {stroke: none; fill: black}
/* Fonts */
.sld-label {stroke: none; fill: black; font: 8px serif}
.sld-angle, .sld-voltage {font: 10px serif}
.sld-graph-label {font: 12px serif}
/* Specific */
.sld-grid {stroke: #003700; stroke-dasharray: 1,10}
.sld-feeder-info.sld-active-power {fill:black}
.sld-feeder-info.sld-reactive-power {fill:blue}
.sld-feeder-info.sld-current {fill:purple}
.sld-frame {fill: var(--sld-background-color, transparent)}
/* Stroke maroon for fictitious switch */
.sld-breaker.sld-fictitious {stroke: maroon}
.sld-disconnector.sld-fictitious {stroke: maroon}
.sld-load-break-switch.sld-fictitious {stroke: maroon}
.sld-busbar-section.sld-fictitious {stroke: var(--sld-vl-color, #c80000); stroke-width: 1}
/* ground disconnector specific */
.sld-ground-disconnection-attach {stroke: var(--sld-vl-color, #c80000); fill: none}
.sld-open .sld-ground-disconnection-ground {stroke: black; fill: none}
.sld-closed .sld-ground-disconnection-ground {stroke: var(--sld-vl-color, #c80000); fill: none}
.sld-ground-disconnection .sld-sw-open {stroke: black; fill: none}
.sld-ground-disconnection .sld-sw-closed {stroke: black; fill: none}

]]></style>
    <rect class="sld-frame" height="100%" width="100%"/>
    <g>
        <g id="LABEL_VL_VL4">
            <text class="sld-graph-label" x="40.0" y="110.0">VL4</text>
        </g>
        <g class="sld-busbar-section sld-vl120to180" id="idB4" transform="translate(52.5,302.0)">
            <line x1="0" x2="275.0" y1="0" y2="0"/>
            <text class="sld-label" id="B4_NW_LABEL" x="-5.0" y="-5.0">B4</text>
        </g>
        <g class="sld-extern-cell sld-cell-direction-top" id="idEXTERN_32_0">
            <g class="sld-wire sld-vl120to180" id="_95_VL4_95_BUSCO_95_B4_95_B4_45_L_95_INTERNAL_95_VL4_95_BUSCO_95_B4_95_B4_45_L_45_B4_45_L">
                <polyline points="65.0,302.0,65.0,272.0"/>
            </g>
            <g class="sld-wire sld-vl120to180" id="_95_VL4_95_INTERNAL_95_VL4_95_BUSCO_95_B4_95_B4_45_L_45_B4_45_L_95_INTERNAL_95_VL4_95_B4_45_L">
                <polyline points="65.0,272.0,65.0,192.0"/>
            </g>
            <g class="sld-wire sld-vl120to180" id="_95_VL4_95_INTERNAL_95_VL4_95_B4_45_L_95_B4_45_L">
                <polyline points="65.0,192.0,65.0,134.5"/>
            </g>
            <g class="sld-active-power sld-feeder-info sld-out" id="idB4_45_L_ARROW_ACTIVE" transform="translate(60.0,149.5)">
                <polygon class="sld-arrow-out" points="5,0 10,10 0,10"/>
                <polygon class="sld-arrow-in" points="0,0 10,0 5,10"/>
                <text class="sld-label" x="15.0" y="5.0">48</text>
            </g>
            <g class="sld-reactive-power sld-feeder-info sld-in" id="idB4_45_L_ARROW_REACTIVE" transform="translate(60.0,169.5)">
                <polygon class="sld-arrow-out" points="5,0 10,10 0,10"/>
                <polygon class="sld-arrow-in" points="0,0 10,0 5,10"/>
                <text class="sld-label" x="15.0" y="5.0">-4</text>
            </g>
            <g class="sld-bus-connection sld-fictitious sld-vl120to180" id="idBUSCO_95_B4_95_B4_45_L" transform="translate(61.0,298.0)">
                <circle cx="4" cy="4" r="4"/>
            </g>
            <g class="sld-node sld-hidden-node sld-fictitious sld-vl120to180" id="idINTERNAL_95_VL4_95_BUSCO_95_B4_95_B4_45_L_45_B4_45_L" transform="translate(61.0,268.0)">
                <circle cx="4" cy="4" r="4"/>
            </g>
            <g class="sld-node sld-hidden-node sld-fictitious sld-vl120to180" id="idINTERNAL_95_VL4_95_B4_45_L" transform="translate(61.0,188.0)">
                <circle cx="4" cy="4" r="4"/>
            </g>
            <g class="sld-load sld-top-feeder sld-vl120to180" id="idB4_45_L" transform="translate(57.0,125.5)">
                <rect height="9" width="16"/>
                <line x1="0" x2="16" y1="0" y2="9"/>
                <line x1="16" x2="0" y1="0" y2="9"/>
                <text class="sld-label" id="B4-L_N_LABEL" x="-5.0" y="-5.0">B4-L</text>
            </g>
        </g>
        <g class="sld-extern-cell sld-cell-direction-bottom" id="idEXTERN_32_1">
            <g class="sld-wire sld-vl120to180" id="_95_VL4_95_BUSCO_95_B4_95_L2_45_4_45_1_95_TWO_95_INTERNAL_95_VL4_95_BUSCO_95_B4_95_L2_45_4_45_1_95_TWO_45_L2_45_4_45_1_95_TWO">
                <polyline points="115.0,302.0,115.0,332.0"/>
            </g>
            <g class="sld-wire sld-vl120to180" id="_95_VL4_95_INTERNAL_95_VL4_95_BUSCO_95_B4_95_L2_45_4_45_1_95_TWO_45_L2_45_4_45_1_95_TWO_95_INTERNAL_95_VL4_95_L2_45_4_45_1_95_TWO">
                <polyline points="115.0,332.0,115.0,412.0"/>
            </g>
            <g class="sld-wire sld-vl120to180" id="_95_VL4_95_INTERNAL_95_VL4_95_L2_45_4_45_1_95_TWO_95_L2_45_4_45_1_95_TWO">
                <polyline points="115.0,412.0,115.0,474.0"/>
            </g>
            <g class="sld-reactive-power sld-feeder-info sld-out" id="idL2_45_4_45_1_95_TWO_ARROW_REACTIVE" transform="translate(110.0,449.0)">
                <polygon class="sld-arrow-out" points="5,0 10,10 0,10" transform="rotate(180.0,5.0,5.0)"/>
                <polygon class="sld-arrow-in" points="0,0 10,0 5,10" transform="rotate(180.0,5.0,5.0)"/>
                <text class="sld-label" x="15.0" y="5.0">3</text>
            </g>
            <g class="sld-active-power sld-feeder-info sld-in" id="idL2_45_4_45_1_95_TWO_ARROW_ACTIVE" transform="translate(110.0,429.0)">
                <polygon class="sld-arrow-out" points="5,0 10,10 0,10" transform="rotate(180.0,5.0,5.0)"/>
                <polygon class="sld-arrow-in" points="0,0 10,0 5,10" transform="rotate(180.0,5.0,5.0)"/>
                <text class="sld-label" x="15.0" y="5.0">-54</text>
            </g>
            <g class="sld-bus-connection sld-fictitious sld-vl120to180" id="idBUSCO_95_B4_95_L2_45_4_45_1_95_TWO" transform="translate(111.0,298.0)">
                <circle cx="4" cy="4" r="4"/>
            </g>
            <g class="sld-node sld-hidden-node sld-fictitious sld-vl120to180" id="idINTERNAL_95_VL4_95_BUSCO_95_B4_95_L2_45_4_45_1_95_TWO_45_L2_45_4_45_1_95_TWO" transform="translate(111.0,328.0)">
                <circle cx="4" cy="4" r="4"/>
            </g>
            <g class="sld-node sld-hidden-node sld-fictitious sld-vl120to180" id="idINTERNAL_95_VL4_95_L2_45_4_45_1_95_TWO" transform="translate(111.0,408.0)">
                <circle cx="4" cy="4" r="4"/>
            </g>
            <g class="sld-bottom-feeder" id="idL2_45_4_45_1_95_TWO" transform="translate(115.0,474.0)">
                <text class="sld-label" id="L2-4-1_TWO_S_LABEL" x="-5.0" y="5.0">L2-4-1</text>
            </g>
        </g>
        <g class="sld-extern-cell sld-cell-direction-top" id="idEXTERN_32_2">
            <g class="sld-wire sld-vl120to180" id="_95_VL4_95_BUSCO_95_B4_95_L3_45_4_45_1_95_TWO_95_INTERNAL_95_VL4_95_BUSCO_95_B4_95_L3_45_4_45_1_95_TWO_45_L3_45_4_45_1_95_TWO">
                <polyline points="165.0,302.0,165.0,272.0"/>
            </g>
            <g class="sld-wire sld-vl120to180" id="_95_VL4_95_INTERNAL_95_VL4_95_BUSCO_95_B4_95_L3_45_4_45_1_95_TWO_45_L3_45_4_45_1_95_TWO_95_INTERNAL_95_VL4_95_L3_45_4_45_1_95_TWO">
                <polyline points="165.0,272.0,165.0,192.0"/>
            </g>
            <g class="sld-wire sld-vl120to180" id="_95_VL4_95_INTERNAL_95_VL4_95_L3_45_4_45_1_95_TWO_95_L3_45_4_45_1_95_TWO">
                <polyline points="165.0,192.0,165.0,130.0"/>
            </g>
            <g class="sld-active-power sld-feeder-info sld-out" id="idL3_45_4_45_1_95_TWO_ARROW_ACTIVE" transform="translate(160.0,145.0)">
                <polygon class="sld-arrow-out" points="5,0 10,10 0,10"/>
                <polygon class="sld-arrow-in" points="0,0 10,0 5,10"/>
                <text class="sld-label" x="15.0" y="5.0">24</text>
            </g>
            <g class="sld-reactive-power sld-feeder-info sld-in" id="idL3_45_4_45_1_95_TWO_ARROW_REACTIVE" transform="translate(160.0,165.0)">
                <polygon class="sld-arrow-out" points="5,0 10,10 0,10"/>
                <polygon class="sld-arrow-in" points="0,0 10,0 5,10"/>
                <text class="sld-label" x="15.0" y="5.0">-5</text>
            </g>
            <g class="sld-bus-connection sld-fictitious sld-vl120to180" id="idBUSCO_95_B4_95_L3_45_4_45_1_95_TWO" transform="translate(161.0,298.0)">
                <circle cx="4" cy="4" r="4"/>
            </g>
            <g class="sld-node sld-hidden-node sld-fictitious sld-vl120to180" id="idINTERNAL_95_VL4_95_BUSCO_95_B4_95_L3_45_4_45_1_95_TWO_45_L3_45_4_45_1_95_TWO" transform="translate(161.0,268.0)">
                <circle cx="4" cy="4" r="4"/>
            </g>
            <g class="sld-node sld-hidden-node sld-fictitious sld-vl120to180" id="idINTERNAL_95_VL4_95_L3_45_4_45_1_95_TWO" transform="translate(161.0,188.0)">
                <circle cx="4" cy="4" r="4"/>
            </g>
            <g class="sld-top-feeder" id="idL3_45_4_45_1_95_TWO" transform="translate(165.0,130.0)">
                <text class="sld-label" id="L3-4-1_TWO_N_LABEL" x="-5.0" y="-5.0">L3-4-1</text>
            </g>
        </g>
        <g class="sld-extern-cell sld-cell-direction-bottom" id="idEXTERN_32_3">
            <g class="sld-wire sld-vl120to180" id="_95_VL4_95_BUSCO_95_B4_95_L4_45_5_45_1_95_ONE_95_INTERNAL_95_VL4_95_BUSCO_95_B4_95_L4_45_5_45_1_95_ONE_45_L4_45_5_45_1_95_ONE">
                <polyline points="215.0,302.0,215.0,332.0"/>
            </g>
            <g class="sld-wire sld-vl120to180" id="_95_VL4_95_INTERNAL_95_VL4_95_BUSCO_95_B4_95_L4_45_5_45_1_95_ONE_45_L4_45_5_45_1_95_ONE_95_INTERNAL_95_VL4_95_L4_45_5_45_1_95_ONE">
                <polyline points="215.0,332.0,215.0,412.0"/>
            </g>
            <g class="sld-wire sld-vl120to180" id="_95_VL4_95_INTERNAL_95_VL4_95_L4_45_5_45_1_95_ONE_95_L4_45_5_45_1_95_ONE">
                <polyline points="215.0,412.0,215.0,474.0"/>
            </g>
            <g class="sld-reactive-power sld-feeder-info sld-out" id="idL4_45_5_45_1_95_ONE_ARROW_REACTIVE" transform="translate(210.0,449.0)">
                <polygon class="sld-arrow-out" points="5,0 10,10 0,10" transform="rotate(180.0,5.0,5.0)"/>
                <polygon class="sld-arrow-in" points="0,0 10,0 5,10" transform="rotate(180.0,5.0,5.0)"/>
                <text class="sld-label" x="15.0" y="5.0">16</text>
            </g>
            <g class="sld-active-power sld-feeder-info sld-in" id="idL4_45_5_45_1_95_ONE_ARROW_ACTIVE" transform="translate(210.0,429.0)">
                <polygon class="sld-arrow-out" points="5,0 10,10 0,10" transform="rotate(180.0,5.0,5.0)"/>
                <polygon class="sld-arrow-in" points="0,0 10,0 5,10" transform="rotate(180.0,5.0,5.0)"/>
                <text class="sld-label" x="15.0" y="5.0">-61</text>
            </g>
            <g class="sld-bus-connection sld-fictitious sld-vl120to180" id="idBUSCO_95_B4_95_L4_45_5_45_1_95_ONE" transform="translate(211.0,298.0)">
                <circle cx="4" cy="4" r="4"/>
            </g>
            <g class="sld-node sld-hidden-node sld-fictitious sld-vl120to180" id="idINTERNAL_95_VL4_95_BUSCO_95_B4_95_L4_45_5_45_1_95_ONE_45_L4_45_5_45_1_95_ONE" transform="translate(211.0,328.0)">
                <circle cx="4" cy="4" r="4"/>
            </g>
            <g class="sld-node sld-hidden-node sld-fictitious sld-vl120to180" id="idINTERNAL_95_VL4_95_L4_45_5_45_1_95_ONE" transform="translate(211.0,408.0)">
                <circle cx="4" cy="4" r="4"/>
            </g>
            <g class="sld-bottom-feeder" id="idL4_45_5_45_1_95_ONE" transform="translate(215.0,474.0)">
                <text class="sld-label" id="L4-5-1_ONE_S_LABEL" x="-5.0" y="5.0">L4-5-1</text>
            </g>
        </g>
        <g class="sld-extern-cell sld-cell-direction-top" id="idEXTERN_32_4">
            <g class="sld-wire sld-vl120to180" id="_95_VL4_95_BUSCO_95_B4_95_T4_45_7_45_1_95_ONE_95_INTERNAL_95_VL4_95_BUSCO_95_B4_95_T4_45_7_45_1_95_ONE_45_T4_45_7_45_1_95_ONE">
                <polyline points="265.0,302.0,265.0,272.0"/>
            </g>
            <g class="sld-wire sld-vl120to180" id="_95_VL4_95_INTERNAL_95_VL4_95_BUSCO_95_B4_95_T4_45_7_45_1_95_ONE_45_T4_45_7_45_1_95_ONE_95_INTERNAL_95_VL4_95_T4_45_7_45_1_95_ONE">
                <polyline points="265.0,272.0,265.0,192.0"/>
            </g>
            <g class="sld-wire sld-vl120to180" id="_95_VL4_95_INTERNAL_95_VL4_95_T4_45_7_45_1_95_ONE_95_T4_45_7_45_1_95_ONE">
                <polyline points="265.0,192.0,265.0,130.0"/>
            </g>
            <g class="sld-active-power sld-feeder-info sld-out" id="idT4_45_7_45_1_95_ONE_ARROW_ACTIVE" transform="translate(260.0,145.0)">
                <polygon class="sld-arrow-out" points="5,0 10,10 0,10"/>
                <polygon class="sld-arrow-in" points="0,0 10,0 5,10"/>
                <text class="sld-label" x="15.0" y="5.0">28</text>
            </g>
            <g class="sld-reactive-power sld-feeder-info sld-in" id="idT4_45_7_45_1_95_ONE_ARROW_REACTIVE" transform="translate(260.0,165.0)">
                <polygon class="sld-arrow-out" points="5,0 10,10 0,10"/>
                <polygon class="sld-arrow-in" points="0,0 10,0 5,10"/>
                <text class="sld-label" x="15.0" y="5.0">-10</text>
            </g>
            <g class="sld-bus-connection sld-fictitious sld-vl120to180" id="idBUSCO_95_B4_95_T4_45_7_45_1_95_ONE" transform="translate(261.0,298.0)">
                <circle cx="4" cy="4" r="4"/>
            </g>
            <g class="sld-node sld-hidden-node sld-fictitious sld-vl120to180" id="idINTERNAL_95_VL4_95_BUSCO_95_B4_95_T4_45_7_45_1_95_ONE_45_T4_45_7_45_1_95_ONE" transform="translate(261.0,268.0)">
                <circle cx="4" cy="4" r="4"/>
            </g>
            <g class="sld-node sld-hidden-node sld-fictitious sld-vl120to180" id="idINTERNAL_95_VL4_95_T4_45_7_45_1_95_ONE" transform="translate(261.0,188.0)">
                <circle cx="4" cy="4" r="4"/>
            </g>
            <g class="sld-top-feeder sld-vl120to180" id="idT4_45_7_45_1_95_ONE" transform="translate(265.0,130.0)">
                <text class="sld-label" id="T4-7-1_ONE_N_LABEL" x="-5.0" y="-5.0">T4-7-1</text>
            </g>
        </g>
        <g class="sld-extern-cell sld-cell-direction-bottom" id="idEXTERN_32_5">
            <g class="sld-wire sld-vl120to180" id="_95_VL4_95_BUSCO_95_B4_95_T4_45_9_45_1_95_ONE_95_INTERNAL_95_VL4_95_BUSCO_95_B4_95_T4_45_9_45_1_95_ONE_45_T4_45_9_45_1_95_ONE">
                <polyline points="315.0,302.0,315.0,332.0"/>
            </g>
            <g class="sld-wire sld-vl120to180" id="_95_VL4_95_INTERNAL_95_VL4_95_BUSCO_95_B4_95_T4_45_9_45_1_95_ONE_45_T4_45_9_45_1_95_ONE_95_INTERNAL_95_VL4_95_T4_45_9_45_1_95_ONE">
                <polyline points="315.0,332.0,315.0,412.0"/>
            </g>
            <g class="sld-wire sld-vl120to180" id="_95_VL4_95_INTERNAL_95_VL4_95_T4_45_9_45_1_95_ONE_95_T4_45_9_45_1_95_ONE">
                <polyline points="315.0,412.0,315.0,474.0"/>
            </g>
            <g class="sld-reactive-power sld-feeder-info sld-in" id="idT4_45_9_45_1_95_ONE_ARROW_REACTIVE" transform="translate(310.0,449.0)">
                <polygon class="sld-arrow-out" points="5,0 10,10 0,10" transform="rotate(180.0,5.0,5.0)"/>
                <polygon class="sld-arrow-in" points="0,0 10,0 5,10" transform="rotate(180.0,5.0,5.0)"/>
                <text class="sld-label" x="15.0" y="5.0">-0</text>
            </g>
            <g class="sld-active-power sld-feeder-info sld-out" id="idT4_45_9_45_1_95_ONE_ARROW_ACTIVE" transform="translate(310.0,429.0)">
                <polygon class="sld-arrow-out" points="5,0 10,10 0,10" transform="rotate(180.0,5.0,5.0)"/>
                <polygon class="sld-arrow-in" points="0,0 10,0 5,10" transform="rotate(180.0,5.0,5.0)"/>
                <text class="sld-label" x="15.0" y="5.0">16</text>
            </g>
            <g class="sld-bus-connection sld-fictitious sld-vl120to180" id="idBUSCO_95_B4_95_T4_45_9_45_1_95_ONE" transform="translate(311.0,298.0)">
                <circle cx="4" cy="4" r="4"/>
            </g>
            <g class="sld-node sld-hidden-node sld-fictitious sld-vl120to180" id="idINTERNAL_95_VL4_95_BUSCO_95_B4_95_T4_45_9_45_1_95_ONE_45_T4_45_9_45_1_95_ONE" transform="translate(311.0,328.0)">
                <circle cx="4" cy="4" r="4"/>
            </g>
            <g class="sld-node sld-hidden-node sld-fictitious sld-vl120to180" id="idINTERNAL_95_VL4_95_T4_45_9_45_1_95_ONE" transform="translate(311.0,408.0)">
                <circle cx="4" cy="4" r="4"/>
            </g>
            <g class="sld-bottom-feeder sld-vl120to180" id="idT4_45_9_45_1_95_ONE" transform="translate(315.0,474.0)">
                <text class="sld-label" id="T4-9-1_ONE_S_LABEL" x="-5.0" y="5.0">T4-9-1</text>
            </g>
        </g>
        <g id="LABEL_VL_VL7">
            <text class="sld-graph-label" x="380.0" y="110.0">VL7</text>
        </g>
        <g class="sld-busbar-section sld-vl0to30" id="idB7" transform="translate(392.5,302.0)">
            <line x1="0" x2="125.0" y1="0" y2="0"/>
            <text class="sld-label" id="B7_NW_LABEL" x="-5.0" y="-5.0">B7</text>
        </g>
        <g class="sld-extern-cell sld-cell-direction-top" id="idEXTERN_32_0">
            <g class="sld-wire sld-vl0to30" id="_95_VL7_95_BUSCO_95_B7_95_T4_45_7_45_1_95_TWO_95_INTERNAL_95_VL7_95_BUSCO_95_B7_95_T4_45_7_45_1_95_TWO_45_T4_45_7_45_1_95_TWO">
                <polyline points="405.0,302.0,405.0,272.0"/>
            </g>
            <g class="sld-wire sld-vl0to30" id="_95_VL7_95_INTERNAL_95_VL7_95_BUSCO_95_B7_95_T4_45_7_45_1_95_TWO_45_T4_45_7_45_1_95_TWO_95_INTERNAL_95_VL7_95_T4_45_7_45_1_95_TWO">
                <polyline points="405.0,272.0,405.0,192.0"/>
            </g>
            <g class="sld-wire sld-vl0to30" id="_95_VL7_95_INTERNAL_95_VL7_95_T4_45_7_45_1_95_TWO_95_T4_45_7_45_1_95_TWO">
                <polyline points="405.0,192.0,405.0,130.0"/>
            </g>
            <g class="sld-active-power sld-feeder-info sld-in" id="idT4_45_7_45_1_95_TWO_ARROW_ACTIVE" transform="translate(400.0,145.0)">
                <polygon class="sld-arrow-out" points="5,0 10,10 0,10"/>
                <polygon class="sld-arrow-in" points="0,0 10,0 5,10"/>
                <text class="sld-label" x="15.0" y="5.0">-28</text>
            </g>
            <g class="sld-reactive-power sld-feeder-info sld-out" id="idT4_45_7_45_1_95_TWO_ARROW_REACTIVE" transform="translate(400.0,165.0)">
                <polygon class="sld-arrow-out" points="5,0 10,10 0,10"/>
                <polygon class="sld-arrow-in" points="0,0 10,0 5,10"/>
                <text class="sld-label" x="15.0" y="5.0">11</text>
            </g>
            <g class="sld-bus-connection sld-fictitious sld-vl0to30" id="idBUSCO_95_B7_95_T4_45_7_45_1_95_TWO" transform="translate(401.0,298.0)">
                <circle cx="4" cy="4" r="4"/>
            </g>
            <g class="sld-node sld-hidden-node sld-fictitious sld-vl0to30" id="idINTERNAL_95_VL7_95_BUSCO_95_B7_95_T4_45_7_45_1_95_TWO_45_T4_45_7_45_1_95_TWO" transform="translate(401.0,268.0)">
                <circle cx="4" cy="4" r="4"/>
            </g>
            <g class="sld-node sld-hidden-node sld-fictitious sld-vl0to30" id="idINTERNAL_95_VL7_95_T4_45_7_45_1_95_TWO" transform="translate(401.0,188.0)">
                <circle cx="4" cy="4" r="4"/>
            </g>
            <g class="sld-top-feeder sld-vl0to30" id="idT4_45_7_45_1_95_TWO" transform="translate(405.0,130.0)">
                <text class="sld-label" id="T4-7-1_TWO_N_LABEL" x="-5.0" y="-5.0">T4-7-1</text>
            </g>
        </g>
        <g class="sld-extern-cell sld-cell-direction-bottom" id="idEXTERN_32_1">
            <g class="sld-wire sld-vl0to30" id="_95_VL7_95_BUSCO_95_B7_95_L7_45_8_45_1_95_ONE_95_INTERNAL_95_VL7_95_BUSCO_95_B7_95_L7_45_8_45_1_95_ONE_45_L7_45_8_45_1_95_ONE">
                <polyline points="455.0,302.0,455.0,332.0"/>
            </g>
            <g class="sld-wire sld-vl0to30" id="_95_VL7_95_INTERNAL_95_VL7_95_BUSCO_95_B7_95_L7_45_8_45_1_95_ONE_45_L7_45_8_45_1_95_ONE_95_INTERNAL_95_VL7_95_L7_45_8_45_1_95_ONE">
                <polyline points="455.0,332.0,455.0,412.0"/>
            </g>
            <g class="sld-wire sld-vl0to30" id="_95_VL7_95_INTERNAL_95_VL7_95_L7_45_8_45_1_95_ONE_95_L7_45_8_45_1_95_ONE">
                <polyline points="455.0,412.0,455.0,474.0"/>
            </g>
            <g class="sld-reactive-power sld-feeder-info sld-in" id="idL7_45_8_45_1_95_ONE_ARROW_REACTIVE" transform="translate(450.0,449.0)">
                <polygon class="sld-arrow-out" points="5,0 10,10 0,10" transform="rotate(180.0,5.0,5.0)"/>
                <polygon class="sld-arrow-in" points="0,0 10,0 5,10" transform="rotate(180.0,5.0,5.0)"/>
                <text class="sld-label" x="15.0" y="5.0">-17</text>
            </g>
            <g class="sld-active-power sld-feeder-info sld-in" id="idL7_45_8_45_1_95_ONE_ARROW_ACTIVE" transform="translate(450.0,429.0)">
                <polygon class="sld-arrow-out" points="5,0 10,10 0,10" transform="rotate(180.0,5.0,5.0)"/>
                <polygon class="sld-arrow-in" points="0,0 10,0 5,10" transform="rotate(180.0,5.0,5.0)"/>
                <text class="sld-label" x="15.0" y="5.0">0</text>
            </g>
            <g class="sld-bus-connection sld-fictitious sld-vl0to30" id="idBUSCO_95_B7_95_L7_45_8_45_1_95_ONE" transform="translate(451.0,298.0)">
                <circle cx="4" cy="4" r="4"/>
            </g>
            <g class="sld-node sld-hidden-node sld-fictitious sld-vl0to30" id="idINTERNAL_95_VL7_95_BUSCO_95_B7_95_L7_45_8_45_1_95_ONE_45_L7_45_8_45_1_95_ONE" transform="translate(451.0,328.0)">
                <circle cx="4" cy="4" r="4"/>
            </g>
            <g class="sld-node sld-hidden-node sld-fictitious sld-vl0to30" id="idINTERNAL_95_VL7_95_L7_45_8_45_1_95_ONE" transform="translate(451.0,408.0)">
                <circle cx="4" cy="4" r="4"/>
            </g>
            <g class="sld-bottom-feeder" id="idL7_45_8_45_1_95_ONE" transform="translate(455.0,474.0)">
                <text class="sld-label" id="L7-8-1_ONE_S_LABEL" x="-5.0" y="5.0">L7-8-1</text>
            </g>
        </g>
        <g class="sld-extern-cell sld-cell-direction-top" id="idEXTERN_32_2">
            <g class="sld-wire sld-vl0to30" id="_95_VL7_95_BUSCO_95_B7_95_L7_45_9_45_1_95_ONE_95_INTERNAL_95_VL7_95_BUSCO_95_B7_95_L7_45_9_45_1_95_ONE_45_L7_45_9_45_1_95_ONE">
                <polyline points="505.0,302.0,505.0,272.0"/>
            </g>
            <g class="sld-wire sld-vl0to30" id="_95_VL7_95_INTERNAL_95_VL7_95_BUSCO_95_B7_95_L7_45_9_45_1_95_ONE_45_L7_45_9_45_1_95_ONE_95_INTERNAL_95_VL7_95_L7_45_9_45_1_95_ONE">
                <polyline points="505.0,272.0,505.0,192.0"/>
            </g>
            <g class="sld-wire sld-vl0to30" id="_95_VL7_95_INTERNAL_95_VL7_95_L7_45_9_45_1_95_ONE_95_L7_45_9_45_1_95_ONE">
                <polyline points="505.0,192.0,505.0,130.0"/>
            </g>
            <g class="sld-active-power sld-feeder-info sld-out" id="idL7_45_9_45_1_95_ONE_ARROW_ACTIVE" transform="translate(500.0,145.0)">
                <polygon class="sld-arrow-out" points="5,0 10,10 0,10"/>
                <polygon class="sld-arrow-in" points="0,0 10,0 5,10"/>
                <text class="sld-label" x="15.0" y="5.0">28</text>
            </g>
            <g class="sld-reactive-power sld-feeder-info sld-out" id="idL7_45_9_45_1_95_ONE_ARROW_REACTIVE" transform="translate(500.0,165.0)">
                <polygon class="sld-arrow-out" points="5,0 10,10 0,10"/>
                <polygon class="sld-arrow-in" points="0,0 10,0 5,10"/>
                <text class="sld-label" x="15.0" y="5.0">6</text>
            </g>
            <g class="sld-bus-connection sld-fictitious sld-vl0to30" id="idBUSCO_95_B7_95_L7_45_9_45_1_95_ONE" transform="translate(501.0,298.0)">
                <circle cx="4" cy="4" r="4"/>
            </g>
            <g class="sld-node sld-hidden-node sld-fictitious sld-vl0to30" id="idINTERNAL_95_VL7_95_BUSCO_95_B7_95_L7_45_9_45_1_95_ONE_45_L7_45_9_45_1_95_ONE" transform="translate(501.0,268.0)">
                <circle cx="4" cy="4" r="4"/>
            </g>
            <g class="sld-node sld-hidden-node sld-fictitious sld-vl0to30" id="idINTERNAL_95_VL7_95_L7_45_9_45_1_95_ONE" transform="translate(501.0,188.0)">
                <circle cx="4" cy="4" r="4"/>
            </g>
            <g class="sld-top-feeder" id="idL7_45_9_45_1_95_ONE" transform="translate(505.0,130.0)">
                <text class="sld-label" id="L7-9-1_ONE_N_LABEL" x="-5.0" y="-5.0">L7-9-1</text>
            </g>
        </g>
        <g id="LABEL_VL_VL9">
            <text class="sld-graph-label" x="590.0" y="110.0">VL9</text>
        </g>
        <g class="sld-busbar-section sld-vl0to30" id="idB9" transform="translate(602.5,302.0)">
            <line x1="0" x2="275.0" y1="0" y2="0"/>
            <text class="sld-label" id="B9_NW_LABEL" x="-5.0" y="-5.0">B9</text>
        </g>
        <g class="sld-extern-cell sld-cell-direction-top" id="idEXTERN_32_0">
            <g class="sld-wire sld-vl0to30" id="_95_VL9_95_BUSCO_95_B9_95_B9_45_L_95_INTERNAL_95_VL9_95_BUSCO_95_B9_95_B9_45_L_45_B9_45_L">
                <polyline points="615.0,302.0,615.0,272.0"/>
            </g>
            <g class="sld-wire sld-vl0to30" id="_95_VL9_95_INTERNAL_95_VL9_95_BUSCO_95_B9_95_B9_45_L_45_B9_45_L_95_INTERNAL_95_VL9_95_B9_45_L">
                <polyline points="615.0,272.0,615.0,192.0"/>
            </g>
            <g class="sld-wire sld-vl0to30" id="_95_VL9_95_INTERNAL_95_VL9_95_B9_45_L_95_B9_45_L">
                <polyline points="615.0,192.0,615.0,134.5"/>
            </g>
            <g class="sld-active-power sld-feeder-info sld-out" id="idB9_45_L_ARROW_ACTIVE" transform="translate(610.0,149.5)">
                <polygon class="sld-arrow-out" points="5,0 10,10 0,10"/>
                <polygon class="sld-arrow-in" points="0,0 10,0 5,10"/>
                <text class="sld-label" x="15.0" y="5.0">30</text>
            </g>
            <g class="sld-reactive-power sld-feeder-info sld-out" id="idB9_45_L_ARROW_REACTIVE" transform="translate(610.0,169.5)">
                <polygon class="sld-arrow-out" points="5,0 10,10 0,10"/>
                <polygon class="sld-arrow-in" points="0,0 10,0 5,10"/>
                <text class="sld-label" x="15.0" y="5.0">17</text>
            </g>
            <g class="sld-bus-connection sld-fictitious sld-vl0to30" id="idBUSCO_95_B9_95_B9_45_L" transform="translate(611.0,298.0)">
                <circle cx="4" cy="4" r="4"/>
            </g>
            <g class="sld-node sld-hidden-node sld-fictitious sld-vl0to30" id="idINTERNAL_95_VL9_95_BUSCO_95_B9_95_B9_45_L_45_B9_45_L" transform="translate(611.0,268.0)">
                <circle cx="4" cy="4" r="4"/>
            </g>
            <g class="sld-node sld-hidden-node sld-fictitious sld-vl0to30" id="idINTERNAL_95_VL9_95_B9_45_L" transform="translate(611.0,188.0)">
                <circle cx="4" cy="4" r="4"/>
            </g>
            <g class="sld-load sld-top-feeder sld-vl0to30" id="idB9_45_L" transform="translate(607.0,125.5)">
                <rect height="9" width="16"/>
                <line x1="0" x2="16" y1="0" y2="9"/>
                <line x1="16" x2="0" y1="0" y2="9"/>
                <text class="sld-label" id="B9-L_N_LABEL" x="-5.0" y="-5.0">B9-L</text>
            </g>
        </g>
        <g class="sld-extern-cell sld-cell-direction-bottom" id="idEXTERN_32_1">
            <g class="sld-wire sld-vl0to30" id="_95_VL9_95_BUSCO_95_B9_95_B9_45_SH_95_INTERNAL_95_VL9_95_BUSCO_95_B9_95_B9_45_SH_45_B9_45_SH">
                <polyline points="665.0,302.0,665.0,332.0"/>
            </g>
            <g class="sld-wire sld-vl0to30" id="_95_VL9_95_INTERNAL_95_VL9_95_BUSCO_95_B9_95_B9_45_SH_45_B9_45_SH_95_INTERNAL_95_VL9_95_B9_45_SH">
                <polyline points="665.0,332.0,665.0,412.0"/>
            </g>
            <g class="sld-wire sld-vl0to30" id="_95_VL9_95_INTERNAL_95_VL9_95_B9_45_SH_95_B9_45_SH">
                <polyline points="665.0,412.0,665.0,468.0"/>
            </g>
            <g class="sld-reactive-power sld-feeder-info sld-in" id="idB9_45_SH_ARROW_REACTIVE" transform="translate(660.0,443.0)">
                <polygon class="sld-arrow-out" points="5,0 10,10 0,10" transform="rotate(180.0,5.0,5.0)"/>
                <polygon class="sld-arrow-in" points="0,0 10,0 5,10" transform="rotate(180.0,5.0,5.0)"/>
                <text class="sld-label" x="15.0" y="5.0">-21</text>
            </g>
            <g class="sld-active-power sld-feeder-info sld-in" id="idB9_45_SH_ARROW_ACTIVE" transform="translate(660.0,423.0)">
                <polygon class="sld-arrow-out" points="5,0 10,10 0,10" transform="rotate(180.0,5.0,5.0)"/>
                <polygon class="sld-arrow-in" points="0,0 10,0 5,10" transform="rotate(180.0,5.0,5.0)"/>
                <text class="sld-label" x="15.0" y="5.0">0</text>
            </g>
            <g class="sld-bus-connection sld-fictitious sld-vl0to30" id="idBUSCO_95_B9_95_B9_45_SH" transform="translate(661.0,298.0)">
                <circle cx="4" cy="4" r="4"/>
            </g>
            <g class="sld-node sld-hidden-node sld-fictitious sld-vl0to30" id="idINTERNAL_95_VL9_95_BUSCO_95_B9_95_B9_45_SH_45_B9_45_SH" transform="translate(661.0,328.0)">
                <circle cx="4" cy="4" r="4"/>
            </g>
            <g class="sld-node sld-hidden-node sld-fictitious sld-vl0to30" id="idINTERNAL_95_VL9_95_B9_45_SH" transform="translate(661.0,408.0)">
                <circle cx="4" cy="4" r="4"/>
            </g>
            <g class="sld-capacitor sld-bottom-feeder sld-vl0to30" id="idB9_45_SH" transform="translate(659.0,468.0)">
                <line x1="6" x2="6" y1="0" y2="4.5"/>
                <line x1="0" x2="12" y1="4.5" y2="4.5"/>
                <line x1="0" x2="12" y1="7.5" y2="7.5"/>
                <line x1="6" x2="6" y1="7.5" y2="12"/>
                <text class="sld-label" id="B9-SH_S_LABEL" x="-5.0" y="17.0">B9-SH</text>
            </g>
        </g>
        <g class="sld-extern-cell sld-cell-direction-top" id="idEXTERN_32_2">
            <g class="sld-wire sld-vl0to30" id="_95_VL9_95_BUSCO_95_B9_95_T4_45_9_45_1_95_TWO_95_INTERNAL_95_VL9_95_BUSCO_95_B9_95_T4_45_9_45_1_95_TWO_45_T4_45_9_45_1_95_TWO">
                <polyline points="715.0,302.0,715.0,272.0"/>
            </g>
            <g class="sld-wire sld-vl0to30" id="_95_VL9_95_INTERNAL_95_VL9_95_BUSCO_95_B9_95_T4_45_9_45_1_95_TWO_45_T4_45_9_45_1_95_TWO_95_INTERNAL_95_VL9_95_T4_45_9_45_1_95_TWO">
                <polyline points="715.0,272.0,715.0,192.0"/>
            </g>
            <g class="sld-wire sld-vl0to30" id="_95_VL9_95_INTERNAL_95_VL9_95_T4_45_9_45_1_95_TWO_95_T4_45_9_45_1_95_TWO">
                <polyline points="715.0,192.0,715.0,130.0"/>
            </g>
            <g class="sld-active-power sld-feeder-info sld-in" id="idT4_45_9_45_1_95_TWO_ARROW_ACTIVE" transform="translate(710.0,145.0)">
                <polygon class="sld-arrow-out" points="5,0 10,10 0,10"/>
                <polygon class="sld-arrow-in" points="0,0 10,0 5,10"/>
                <text class="sld-label" x="15.0" y="5.0">-16</text>
            </g>
            <g class="sld-reactive-power sld-feeder-info sld-out" id="idT4_45_9_45_1_95_TWO_ARROW_REACTIVE" transform="translate(710.0,165.0)">
                <polygon class="sld-arrow-out" points="5,0 10,10 0,10"/>
                <polygon class="sld-arrow-in" points="0,0 10,0 5,10"/>
                <text class="sld-label" x="15.0" y="5.0">2</text>
            </g>
            <g class="sld-bus-connection sld-fictitious sld-vl0to30" id="idBUSCO_95_B9_95_T4_45_9_45_1_95_TWO" transform="translate(711.0,298.0)">
                <circle cx="4" cy="4" r="4"/>
            </g>
            <g class="sld-node sld-hidden-node sld-fictitious sld-vl0to30" id="idINTERNAL_95_VL9_95_BUSCO_95_B9_95_T4_45_9_45_1_95_TWO_45_T4_45_9_45_1_95_TWO" transform="translate(711.0,268.0)">
                <circle cx="4" cy="4" r="4"/>
            </g>
            <g class="sld-node sld-hidden-node sld-fictitious sld-vl0to30" id="idINTERNAL_95_VL9_95_T4_45_9_45_1_95_TWO" transform="translate(711.0,188.0)">
                <circle cx="4" cy="4" r="4"/>
            </g>
            <g class="sld-top-feeder sld-vl0to30" id="idT4_45_9_45_1_95_TWO" transform="translate(715.0,130.0)">
                <text class="sld-label" id="T4-9-1_TWO_N_LABEL" x="-5.0" y="-5.0">T4-9-1</text>
            </g>
        </g>
        <g class="sld-extern-cell sld-cell-direction-bottom" id="idEXTERN_32_3">
            <g class="sld-wire sld-vl0to30" id="_95_VL9_95_BUSCO_95_B9_95_L7_45_9_45_1_95_TWO_95_INTERNAL_95_VL9_95_BUSCO_95_B9_95_L7_45_9_45_1_95_TWO_45_L7_45_9_45_1_95_TWO">
                <polyline points="765.0,302.0,765.0,332.0"/>
            </g>
            <g class="sld-wire sld-vl0to30" id="_95_VL9_95_INTERNAL_95_VL9_95_BUSCO_95_B9_95_L7_45_9_45_1_95_TWO_45_L7_45_9_45_1_95_TWO_95_INTERNAL_95_VL9_95_L7_45_9_45_1_95_TWO">
                <polyline points="765.0,332.0,765.0,412.0"/>
            </g>
            <g class="sld-wire sld-vl0to30" id="_95_VL9_95_INTERNAL_95_VL9_95_L7_45_9_45_1_95_TWO_95_L7_45_9_45_1_95_TWO">
                <polyline points="765.0,412.0,765.0,474.0"/>
            </g>
            <g class="sld-reactive-power sld-feeder-info sld-in" id="idL7_45_9_45_1_95_TWO_ARROW_REACTIVE" transform="translate(760.0,449.0)">
                <polygon class="sld-arrow-out" points="5,0 10,10 0,10" transform="rotate(180.0,5.0,5.0)"/>
                <polygon class="sld-arrow-in" points="0,0 10,0 5,10" transform="rotate(180.0,5.0,5.0)"/>
                <text class="sld-label" x="15.0" y="5.0">-5</text>
            </g>
            <g class="sld-active-power sld-feeder-info sld-in" id="idL7_45_9_45_1_95_TWO_ARROW_ACTIVE" transform="translate(760.0,429.0)">
                <polygon class="sld-arrow-out" points="5,0 10,10 0,10" transform="rotate(180.0,5.0,5.0)"/>
                <polygon class="sld-arrow-in" points="0,0 10,0 5,10" transform="rotate(180.0,5.0,5.0)"/>
                <text class="sld-label" x="15.0" y="5.0">-28</text>
            </g>
            <g class="sld-bus-connection sld-fictitious sld-vl0to30" id="idBUSCO_95_B9_95_L7_45_9_45_1_95_TWO" transform="translate(761.0,298.0)">
                <circle cx="4" cy="4" r="4"/>
            </g>
            <g class="sld-node sld-hidden-node sld-fictitious sld-vl0to30" id="idINTERNAL_95_VL9_95_BUSCO_95_B9_95_L7_45_9_45_1_95_TWO_45_L7_45_9_45_1_95_TWO" transform="translate(761.0,328.0)">
                <circle cx="4" cy="4" r="4"/>
            </g>
            <g class="sld-node sld-hidden-node sld-fictitious sld-vl0to30" id="idINTERNAL_95_VL9_95_L7_45_9_45_1_95_TWO" transform="translate(761.0,408.0)">
                <circle cx="4" cy="4" r="4"/>
            </g>
            <g class="sld-bottom-feeder" id="idL7_45_9_45_1_95_TWO" transform="translate(765.0,474.0)">
                <text class="sld-label" id="L7-9-1_TWO_S_LABEL" x="-5.0" y="5.0">L7-9-1</text>
            </g>
        </g>
        <g class="sld-extern-cell sld-cell-direction-top" id="idEXTERN_32_4">
            <g class="sld-wire sld-vl0to30" id="_95_VL9_95_BUSCO_95_B9_95_L9_45_10_45_1_95_ONE_95_INTERNAL_95_VL9_95_BUSCO_95_B9_95_L9_45_10_45_1_95_ONE_45_L9_45_10_45_1_95_ONE">
                <polyline points="815.0,302.0,815.0,272.0"/>
            </g>
            <g class="sld-wire sld-vl0to30" id="_95_VL9_95_INTERNAL_95_VL9_95_BUSCO_95_B9_95_L9_45_10_45_1_95_ONE_45_L9_45_10_45_1_95_ONE_95_INTERNAL_95_VL9_95_L9_45_10_45_1_95_ONE">
                <polyline points="815.0,272.0,815.0,192.0"/>
            </g>
            <g class="sld-wire sld-vl0to30" id="_95_VL9_95_INTERNAL_95_VL9_95_L9_45_10_45_1_95_ONE_95_L9_45_10_45_1_95_ONE">
                <polyline points="815.0,192.0,815.0,130.0"/>
            </g>
            <g class="sld-active-power sld-feeder-info sld-out" id="idL9_45_10_45_1_95_ONE_ARROW_ACTIVE" transform="translate(810.0,145.0)">
                <polygon class="sld-arrow-out" points="5,0 10,10 0,10"/>
                <polygon class="sld-arrow-in" points="0,0 10,0 5,10"/>
                <text class="sld-label" x="15.0" y="5.0">5</text>
            </g>
            <g class="sld-reactive-power sld-feeder-info sld-out" id="idL9_45_10_45_1_95_ONE_ARROW_REACTIVE" transform="translate(810.0,165.0)">
                <polygon class="sld-arrow-out" points="5,0 10,10 0,10"/>
                <polygon class="sld-arrow-in" points="0,0 10,0 5,10"/>
                <text class="sld-label" x="15.0" y="5.0">4</text>
            </g>
            <g class="sld-bus-connection sld-fictitious sld-vl0to30" id="idBUSCO_95_B9_95_L9_45_10_45_1_95_ONE" transform="translate(811.0,298.0)">
                <circle cx="4" cy="4" r="4"/>
            </g>
            <g class="sld-node sld-hidden-node sld-fictitious sld-vl0to30" id="idINTERNAL_95_VL9_95_BUSCO_95_B9_95_L9_45_10_45_1_95_ONE_45_L9_45_10_45_1_95_ONE" transform="translate(811.0,268.0)">
                <circle cx="4" cy="4" r="4"/>
            </g>
            <g class="sld-node sld-hidden-node sld-fictitious sld-vl0to30" id="idINTERNAL_95_VL9_95_L9_45_10_45_1_95_ONE" transform="translate(811.0,188.0)">
                <circle cx="4" cy="4" r="4"/>
            </g>
            <g class="sld-top-feeder" id="idL9_45_10_45_1_95_ONE" transform="translate(815.0,130.0)">
                <text class="sld-label" id="L9-10-1_ONE_N_LABEL" x="-5.0" y="-5.0">L9-10-1</text>
            </g>
        </g>
        <g class="sld-extern-cell sld-cell-direction-bottom" id="idEXTERN_32_5">
            <g class="sld-wire sld-vl0to30" id="_95_VL9_95_BUSCO_95_B9_95_L9_45_14_45_1_95_ONE_95_INTERNAL_95_VL9_95_BUSCO_95_B9_95_L9_45_14_45_1_95_ONE_45_L9_45_14_45_1_95_ONE">
                <polyline points="865.0,302.0,865.0,332.0"/>
            </g>
            <g class="sld-wire sld-vl0to30" id="_95_VL9_95_INTERNAL_95_VL9_95_BUSCO_95_B9_95_L9_45_14_45_1_95_ONE_45_L9_45_14_45_1_95_ONE_95_INTERNAL_95_VL9_95_L9_45_14_45_1_95_ONE">
                <polyline points="865.0,332.0,865.0,412.0"/>
            </g>
            <g class="sld-wire sld-vl0to30" id="_95_VL9_95_INTERNAL_95_VL9_95_L9_45_14_45_1_95_ONE_95_L9_45_14_45_1_95_ONE">
                <polyline points="865.0,412.0,865.0,474.0"/>
            </g>
            <g class="sld-reactive-power sld-feeder-info sld-out" id="idL9_45_14_45_1_95_ONE_ARROW_REACTIVE" transform="translate(860.0,449.0)">
                <polygon class="sld-arrow-out" points="5,0 10,10 0,10" transform="rotate(180.0,5.0,5.0)"/>
                <polygon class="sld-arrow-in" points="0,0 10,0 5,10" transform="rotate(180.0,5.0,5.0)"/>
                <text class="sld-label" x="15.0" y="5.0">4</text>
            </g>
            <g class="sld-active-power sld-feeder-info sld-out" id="idL9_45_14_45_1_95_ONE_ARROW_ACTIVE" transform="translate(860.0,429.0)">
                <polygon class="sld-arrow-out" points="5,0 10,10 0,10" transform="rotate(180.0,5.0,5.0)"/>
                <polygon class="sld-arrow-in" points="0,0 10,0 5,10" transform="rotate(180.0,5.0,5.0)"/>
                <text class="sld-label" x="15.0" y="5.0">9</text>
            </g>
            <g class="sld-bus-connection sld-fictitious sld-vl0to30" id="idBUSCO_95_B9_95_L9_45_14_45_1_95_ONE" transform="translate(861.0,298.0)">
                <circle cx="4" cy="4" r="4"/>
            </g>
            <g class="sld-node sld-hidden-node sld-fictitious sld-vl0to30" id="idINTERNAL_95_VL9_95_BUSCO_95_B9_95_L9_45_14_45_1_95_ONE_45_L9_45_14_45_1_95_ONE" transform="translate(861.0,328.0)">
                <circle cx="4" cy="4" r="4"/>
            </g>
            <g class="sld-node sld-hidden-node sld-fictitious sld-vl0to30" id="idINTERNAL_95_VL9_95_L9_45_14_45_1_95_ONE" transform="translate(861.0,408.0)">
                <circle cx="4" cy="4" r="4"/>
            </g>
            <g class="sld-bottom-feeder" id="idL9_45_14_45_1_95_ONE" transform="translate(865.0,474.0)">
                <text class="sld-label" id="L9-14-1_ONE_S_LABEL" x="-5.0" y="5.0">L9-14-1</text>
            </g>
        </g>
        <g class="sld-wire sld-vl0to30" id="idL7_45_9_45_1">
            <polyline points="505.0,130.0,505.0,20.0,550.0,20.0,550.0,559.0,765.0,559.0,765.0,474.0"/>
        </g>
        <g class="sld-wire sld-vl120to180" id="idEDGE_95_T4_45_7_45_1_95_ONE">
            <polyline points="265.0,130.0,265.0,70.0,327.0,70.0"/>
        </g>
        <g class="sld-wire sld-vl0to30" id="idEDGE_95_T4_45_7_45_1_95_TWO">
            <polyline points="405.0,130.0,405.0,70.0,343.0,70.0"/>
        </g>
        <g class="sld-wire sld-vl120to180" id="idEDGE_95_T4_45_9_45_1_95_ONE">
            <polyline points="315.0,474.0,315.0,534.0,570.0,534.0,570.0,297.5"/>
        </g>
        <g class="sld-wire sld-vl0to30" id="idEDGE_95_T4_45_9_45_1_95_TWO">
            <polyline points="715.0,130.0,715.0,45.0,570.0,45.0,570.0,281.5"/>
        </g>
        <g class="sld-two-wt sld-fictitious" id="idT4_45_7_45_1" transform="translate(330.0,62.5)">
            <circle class="sld-vl120to180 sld-winding" cx="5" cy="10" r="5" transform="rotate(90.0,5.0,7.5)"/>
            <circle class="sld-vl0to30 sld-winding" cx="5" cy="5" r="5" transform="rotate(90.0,5.0,7.5)"/>
        </g>
        <g class="sld-two-wt sld-fictitious" id="idT4_45_9_45_1" transform="translate(565.0,282.0)">
            <circle class="sld-vl120to180 sld-winding" cx="5" cy="10" r="5"/>
            <circle class="sld-vl0to30 sld-winding" cx="5" cy="5" r="5"/>
        </g>
    </g>
</svg>
