<?xml version="1.0" encoding="UTF-8" standalone="no"?>
<svg height="529.0" viewBox="0 0 680.0 529.0" width="680.0" xmlns="http://www.w3.org/2000/svg">
    <style><![CDATA[
/* ----------------------------------------------------------------------- */
/* File: tautologies.css ------------------------------------------------- */
.sld-out .sld-arrow-in {visibility: hidden}
.sld-in .sld-arrow-out {visibility: hidden}
.sld-closed .sld-sw-open {visibility: hidden}
.sld-open .sld-sw-closed {visibility: hidden}
.sld-hidden-node {visibility: hidden}
.sld-top-feeder .sld-label {dominant-baseline: auto}
.sld-bottom-feeder .sld-label {dominant-baseline: hanging}
.sld-active-power .sld-label {dominant-baseline: mathematical}
.sld-reactive-power .sld-label {dominant-baseline: mathematical}
.sld-current .sld-label {dominant-baseline: mathematical}
/* ----------------------------------------------------------------------- */
/* File: baseVoltages.css ------------------------------------------------ */
.sld-vl300to500 {--sld-vl-color: #ff0000}
.sld-vl180to300 {--sld-vl-color: #228b22}
.sld-vl120to180 {--sld-vl-color: #01afaf}
.sld-vl70to120 {--sld-vl-color: #cc5500}
.sld-vl50to70 {--sld-vl-color: #a020f0}
.sld-vl30to50 {--sld-vl-color: #ff8290}
.sld-vl0to30 {--sld-vl-color: #abae28}
/* ----------------------------------------------------------------------- */
/* File : components.css ------------------------------------------------- */
/* Stroke black */
.sld-disconnector {stroke-width: 3; stroke: black; fill: none}
/* Stroke blue */
.sld-breaker {stroke-width: 2; stroke: blue; fill:white}
.sld-load-break-switch {stroke: blue; fill: white}
/* Stroke --sld-vl-color with fallback black */
.sld-bus-connection {fill: var(--sld-vl-color, black)}
.sld-cell-shape-flat .sld-bus-connection {visibility: hidden}
.sld-busbar-section {stroke: var(--sld-vl-color, black); stroke-width: 3; fill: none}
/* Stroke --sld-vl-color with fallback red */
.sld-wire {stroke: var(--sld-vl-color, #c80000); fill: none}
/* Stroke --sld-vl-color with fallback blue */
.sld-load {stroke: var(--sld-vl-color, blue); fill: none}
.sld-battery {stroke: var(--sld-vl-color, blue); fill: none}
.sld-generator {stroke: var(--sld-vl-color, blue); fill: none}
.sld-two-wt {stroke: var(--sld-vl-color, blue); fill: none}
.sld-three-wt {stroke: var(--sld-vl-color, blue); fill: none}
.sld-winding {stroke: var(--sld-vl-color, blue); fill: none}
.sld-capacitor {stroke: var(--sld-vl-color, blue); fill: none}
.sld-inductor {stroke: var(--sld-vl-color, blue); fill: none}
.sld-pst {stroke: var(--sld-vl-color, blue); fill: none}
.sld-pst-arrow {stroke: black; fill: none}
.sld-svc {stroke: var(--sld-vl-color, blue); fill: none}
.sld-vsc {stroke: var(--sld-vl-color, blue); font-size: 7.43px; fill: none}
.sld-lcc {stroke: var(--sld-vl-color, blue); font-size: 7.43px; fill: none}
.sld-ground {stroke: var(--sld-vl-color, blue); fill: none}
/* Stroke none & fill: --sld-vl-color */
.sld-node-infos {stroke: none; fill: var(--sld-vl-color, black)}
/* Stroke none & fill: black */
.sld-node {stroke: none; fill: black}
.sld-flash {stroke: none; fill: black}
.sld-lock {stroke: none; fill: black}
.sld-unknown {stroke: none; fill: black}
/* Fonts */
.sld-label {stroke: none; fill: black; font: 8px serif}
.sld-angle, .sld-voltage {font: 10px serif}
.sld-graph-label {font: 12px serif}
/* Specific */
.sld-grid {stroke: #003700; stroke-dasharray: 1,10}
.sld-feeder-info.sld-active-power {fill:black}
.sld-feeder-info.sld-reactive-power {fill:blue}
.sld-feeder-info.sld-current {fill:purple}
.sld-frame {fill: var(--sld-background-color, transparent)}
/* Stroke maroon for fictitious switch */
.sld-breaker.sld-fictitious {stroke: maroon}
.sld-disconnector.sld-fictitious {stroke: maroon}
.sld-load-break-switch.sld-fictitious {stroke: maroon}
.sld-busbar-section.sld-fictitious {stroke: var(--sld-vl-color, #c80000); stroke-width: 1}
/* ground disconnector specific */
.sld-ground-disconnection-attach {stroke: var(--sld-vl-color, #c80000); fill: none}
.sld-open .sld-ground-disconnection-ground {stroke: black; fill: none}
.sld-closed .sld-ground-disconnection-ground {stroke: var(--sld-vl-color, #c80000); fill: none}
.sld-ground-disconnection .sld-sw-open {stroke: black; fill: none}
.sld-ground-disconnection .sld-sw-closed {stroke: black; fill: none}

]]></style>
    <rect class="sld-frame" height="100%" width="100%"/>
    <g>
        <g class="sld-busbar-section sld-vl300to500" id="idS1VL2_95_BBS1" transform="translate(52.5,252.0)">
            <line x1="0" x2="575.0" y1="0" y2="0"/>
            <text class="sld-label" id="S1VL2_BBS1_NW_LABEL" x="-5.0" y="-5.0">S1VL2_BBS1</text>
        </g>
        <g class="sld-busbar-section sld-vl300to500" id="idS1VL2_95_BBS2" transform="translate(52.5,277.0)">
            <line x1="0" x2="575.0" y1="0" y2="0"/>
            <text class="sld-label" id="S1VL2_BBS2_NW_LABEL" x="-5.0" y="-5.0">S1VL2_BBS2</text>
        </g>
        <g class="sld-intern-cell sld-cell-shape-vertical" id="idINTERN_32_0">
            <g class="sld-wire sld-vl300to500" id="_95_S1VL2_95_S1VL2_95_BBS1_95_COUPLER_95_DISCONNECTOR_95_INTERNAL_95_S1VL2_95_S1VL2_95_BBS1_95_COUPLER_95_DISCONNECTOR_45_S1VL2_95_COUPLER">
                <polyline points="115.0,252.0,115.0,212.0"/>
            </g>
            <g class="sld-wire sld-vl300to500" id="_95_S1VL2_95_INTERNAL_95_S1VL2_95_S1VL2_95_BBS1_95_COUPLER_95_DISCONNECTOR_45_S1VL2_95_COUPLER_95_S1VL2_95_COUPLER">
                <polyline points="115.0,212.0,100.0,212.0"/>
            </g>
            <g class="sld-wire sld-vl300to500" id="_95_S1VL2_95_INTERNAL_95_S1VL2_95_S1VL2_95_BBS2_95_COUPLER_95_DISCONNECTOR_45_S1VL2_95_COUPLER_95_S1VL2_95_COUPLER">
                <polyline points="65.0,212.0,80.0,212.0"/>
            </g>
            <g class="sld-wire sld-vl300to500" id="_95_S1VL2_95_S1VL2_95_BBS2_95_COUPLER_95_DISCONNECTOR_95_INTERNAL_95_S1VL2_95_S1VL2_95_BBS2_95_COUPLER_95_DISCONNECTOR_45_S1VL2_95_COUPLER">
                <polyline points="65.0,277.0,65.0,212.0"/>
            </g>
            <g class="sld-disconnector sld-closed sld-vl300to500" id="idS1VL2_95_BBS1_95_COUPLER_95_DISCONNECTOR" transform="translate(111.0,248.0)">
                <path class="sld-sw-closed" d="M0,0 8,8 M8,0 0,8"/>
                <path class="sld-sw-open" d="M8,0 0,8"/>
            </g>
            <g class="sld-node sld-hidden-node sld-fictitious sld-vl300to500" id="idINTERNAL_95_S1VL2_95_S1VL2_95_BBS1_95_COUPLER_95_DISCONNECTOR_45_S1VL2_95_COUPLER" transform="translate(111.0,208.0)">
                <circle cx="4" cy="4" r="4"/>
            </g>
            <g class="sld-breaker sld-open sld-vl300to500" id="idS1VL2_95_COUPLER" transform="translate(80.0,202.0)">
                <path class="sld-sw-closed" d="M1,1 V19 H19 V1z M10,5 V15" transform="rotate(90.0,10.0,10.0)"/>
                <path class="sld-sw-open" d="M1,1 V19 H19 V1z M5,10 H15" transform="rotate(90.0,10.0,10.0)"/>
            </g>
            <g class="sld-node sld-hidden-node sld-fictitious sld-vl300to500" id="idINTERNAL_95_S1VL2_95_S1VL2_95_BBS2_95_COUPLER_95_DISCONNECTOR_45_S1VL2_95_COUPLER" transform="translate(61.0,208.0)">
                <circle cx="4" cy="4" r="4"/>
            </g>
            <g class="sld-disconnector sld-closed sld-vl300to500" id="idS1VL2_95_BBS2_95_COUPLER_95_DISCONNECTOR" transform="translate(61.0,273.0)">
                <path class="sld-sw-closed" d="M0,0 8,8 M8,0 0,8"/>
                <path class="sld-sw-open" d="M8,0 0,8"/>
            </g>
        </g>
        <g class="sld-extern-cell sld-cell-direction-bottom" id="idEXTERN_32_1">
            <g class="sld-wire sld-vl300to500" id="_95_S1VL2_95_S1VL2_95_BBS1_95_TWT_95_DISCONNECTOR_95_INTERNAL_95_S1VL2_95_2">
                <polyline points="515.0,252.0,515.0,307.0"/>
            </g>
            <g class="sld-wire sld-vl300to500" id="_95_S1VL2_95_S1VL2_95_BBS2_95_TWT_95_DISCONNECTOR_95_INTERNAL_95_S1VL2_95_2">
                <polyline points="515.0,277.0,515.0,307.0"/>
            </g>
            <g class="sld-wire sld-vl300to500" id="_95_S1VL2_95_INTERNAL_95_S1VL2_95_2_95_S1VL2_95_TWT_95_BREAKER">
                <polyline points="515.0,307.0,515.0,337.0"/>
            </g>
            <g class="sld-wire sld-vl300to500" id="_95_S1VL2_95_S1VL2_95_TWT_95_BREAKER_95_INTERNAL_95_S1VL2_95_TWT_95_TWO">
                <polyline points="515.0,357.0,515.0,387.0"/>
            </g>
            <g class="sld-wire sld-vl300to500" id="_95_S1VL2_95_INTERNAL_95_S1VL2_95_TWT_95_TWO_95_TWT_95_TWO">
                <polyline points="515.0,387.0,515.0,441.5"/>
            </g>
            <g class="sld-reactive-power sld-feeder-info sld-out" id="idTWT_95_TWO_ARROW_REACTIVE" transform="translate(510.0,416.5)">
                <polygon class="sld-arrow-out" points="5,0 10,10 0,10" transform="rotate(180.0,5.0,5.0)"/>
                <polygon class="sld-arrow-in" points="0,0 10,0 5,10" transform="rotate(180.0,5.0,5.0)"/>
                <text class="sld-label" x="15.0" y="5.0">5</text>
            </g>
            <g class="sld-active-power sld-feeder-info sld-out" id="idTWT_95_TWO_ARROW_ACTIVE" transform="translate(510.0,396.5)">
                <polygon class="sld-arrow-out" points="5,0 10,10 0,10" transform="rotate(180.0,5.0,5.0)"/>
                <polygon class="sld-arrow-in" points="0,0 10,0 5,10" transform="rotate(180.0,5.0,5.0)"/>
                <text class="sld-label" x="15.0" y="5.0">80</text>
            </g>
            <g class="sld-disconnector sld-closed sld-vl300to500" id="idS1VL2_95_BBS1_95_TWT_95_DISCONNECTOR" transform="translate(511.0,248.0)">
                <path class="sld-sw-closed" d="M0,0 8,8 M8,0 0,8"/>
                <path class="sld-sw-open" d="M8,0 0,8"/>
            </g>
            <g class="sld-node sld-hidden-node sld-fictitious sld-vl300to500" id="idINTERNAL_95_S1VL2_95_2" transform="translate(511.0,303.0)">
                <circle cx="4" cy="4" r="4"/>
            </g>
            <g class="sld-disconnector sld-open sld-vl300to500" id="idS1VL2_95_BBS2_95_TWT_95_DISCONNECTOR" transform="translate(511.0,273.0)">
                <path class="sld-sw-closed" d="M0,0 8,8 M8,0 0,8"/>
                <path class="sld-sw-open" d="M8,0 0,8"/>
            </g>
            <g class="sld-breaker sld-closed sld-vl300to500" id="idS1VL2_95_TWT_95_BREAKER" transform="translate(505.0,337.0)">
                <path class="sld-sw-closed" d="M1,1 V19 H19 V1z M10,5 V15"/>
                <path class="sld-sw-open" d="M1,1 V19 H19 V1z M5,10 H15"/>
            </g>
            <g class="sld-node sld-hidden-node sld-fictitious sld-vl300to500" id="idINTERNAL_95_S1VL2_95_TWT_95_TWO" transform="translate(511.0,383.0)">
                <circle cx="4" cy="4" r="4"/>
            </g>
            <g class="sld-pst sld-bottom-feeder" id="idTWT_95_TWO" transform="translate(508.0,441.5)">
                <circle class="sld-vl300to500 sld-winding" cx="7" cy="10" r="5" transform="rotate(180.0,7.0,7.5)"/>
                <circle class="sld-vl180to300 sld-winding" cx="7" cy="5" r="5" transform="rotate(180.0,7.0,7.5)"/>
                <path class="sld-vl300to500 sld-pst-arrow" d="M14,0 0,14 M11,0 14,0 14,3" transform="rotate(180.0,7.0,7.5)"/>
                <text class="sld-label" id="TWT_TWO_S_LABEL" x="-5.0" y="20.0">TWT</text>
            </g>
        </g>
        <g class="sld-extern-cell sld-cell-direction-bottom" id="idEXTERN_32_2">
            <g class="sld-wire sld-vl300to500" id="_95_S1VL2_95_S1VL2_95_BBS1_95_VSC1_95_DISCONNECTOR_95_INTERNAL_95_S1VL2_95_4">
                <polyline points="615.0,252.0,615.0,307.0"/>
            </g>
            <g class="sld-wire sld-vl300to500" id="_95_S1VL2_95_S1VL2_95_BBS2_95_VSC1_95_DISCONNECTOR_95_INTERNAL_95_S1VL2_95_4">
                <polyline points="615.0,277.0,615.0,307.0"/>
            </g>
            <g class="sld-wire sld-vl300to500" id="_95_S1VL2_95_INTERNAL_95_S1VL2_95_4_95_S1VL2_95_VSC1_95_BREAKER">
                <polyline points="615.0,307.0,615.0,337.0"/>
            </g>
            <g class="sld-wire sld-vl300to500" id="_95_S1VL2_95_S1VL2_95_VSC1_95_BREAKER_95_INTERNAL_95_S1VL2_95_VSC1">
                <polyline points="615.0,357.0,615.0,387.0"/>
            </g>
            <g class="sld-wire sld-vl300to500" id="_95_S1VL2_95_INTERNAL_95_S1VL2_95_VSC1_95_VSC1">
                <polyline points="615.0,387.0,615.0,443.0"/>
            </g>
            <g class="sld-reactive-power sld-feeder-info sld-in" id="idVSC1_ARROW_REACTIVE" transform="translate(610.0,418.0)">
                <polygon class="sld-arrow-out" points="5,0 10,10 0,10" transform="rotate(180.0,5.0,5.0)"/>
                <polygon class="sld-arrow-in" points="0,0 10,0 5,10" transform="rotate(180.0,5.0,5.0)"/>
                <text class="sld-label" x="15.0" y="5.0">-421</text>
            </g>
            <g class="sld-active-power sld-feeder-info sld-out" id="idVSC1_ARROW_ACTIVE" transform="translate(610.0,398.0)">
                <polygon class="sld-arrow-out" points="5,0 10,10 0,10" transform="rotate(180.0,5.0,5.0)"/>
                <polygon class="sld-arrow-in" points="0,0 10,0 5,10" transform="rotate(180.0,5.0,5.0)"/>
                <text class="sld-label" x="15.0" y="5.0">10</text>
            </g>
            <g class="sld-disconnector sld-open sld-vl300to500" id="idS1VL2_95_BBS1_95_VSC1_95_DISCONNECTOR" transform="translate(611.0,248.0)">
                <path class="sld-sw-closed" d="M0,0 8,8 M8,0 0,8"/>
                <path class="sld-sw-open" d="M8,0 0,8"/>
            </g>
            <g class="sld-node sld-hidden-node sld-fictitious sld-vl300to500" id="idINTERNAL_95_S1VL2_95_4" transform="translate(611.0,303.0)">
                <circle cx="4" cy="4" r="4"/>
            </g>
            <g class="sld-disconnector sld-closed sld-vl300to500" id="idS1VL2_95_BBS2_95_VSC1_95_DISCONNECTOR" transform="translate(611.0,273.0)">
                <path class="sld-sw-closed" d="M0,0 8,8 M8,0 0,8"/>
                <path class="sld-sw-open" d="M8,0 0,8"/>
            </g>
            <g class="sld-breaker sld-closed sld-vl300to500" id="idS1VL2_95_VSC1_95_BREAKER" transform="translate(605.0,337.0)">
                <path class="sld-sw-closed" d="M1,1 V19 H19 V1z M10,5 V15"/>
                <path class="sld-sw-open" d="M1,1 V19 H19 V1z M5,10 H15"/>
            </g>
            <g class="sld-node sld-hidden-node sld-fictitious sld-vl300to500" id="idINTERNAL_95_S1VL2_95_VSC1" transform="translate(611.0,383.0)">
                <circle cx="4" cy="4" r="4"/>
            </g>
            <g class="sld-vsc sld-bottom-feeder" id="idVSC1" transform="translate(607.0,445.0)">
                <text class="sld-vl300to500" x="-15.5" y="6.6">AC / DC - VSC</text>
                <text class="sld-label" id="VSC1_S_LABEL" x="-5.0" y="13.0">HVDC1</text>
            </g>
        </g>
        <g class="sld-extern-cell sld-cell-direction-top" id="idEXTERN_32_3">
            <g class="sld-wire sld-vl300to500" id="_95_S1VL2_95_S1VL2_95_BBS1_95_GH1_95_DISCONNECTOR_95_INTERNAL_95_S1VL2_95_6">
                <polyline points="165.0,252.0,165.0,222.0"/>
            </g>
            <g class="sld-wire sld-vl300to500" id="_95_S1VL2_95_S1VL2_95_BBS2_95_GH1_95_DISCONNECTOR_95_INTERNAL_95_S1VL2_95_6">
                <polyline points="165.0,277.0,165.0,222.0"/>
            </g>
            <g class="sld-wire sld-vl300to500" id="_95_S1VL2_95_INTERNAL_95_S1VL2_95_6_95_S1VL2_95_GH1_95_BREAKER">
                <polyline points="165.0,222.0,165.0,192.0"/>
            </g>
            <g class="sld-wire sld-vl300to500" id="_95_S1VL2_95_S1VL2_95_GH1_95_BREAKER_95_INTERNAL_95_S1VL2_95_GH1">
                <polyline points="165.0,172.0,165.0,142.0"/>
            </g>
            <g class="sld-wire sld-vl300to500" id="_95_S1VL2_95_INTERNAL_95_S1VL2_95_GH1_95_GH1">
                <polyline points="165.0,142.0,165.0,86.0"/>
            </g>
            <g class="sld-active-power sld-feeder-info sld-in" id="idGH1_ARROW_ACTIVE" transform="translate(160.0,101.0)">
                <polygon class="sld-arrow-out" points="5,0 10,10 0,10"/>
                <polygon class="sld-arrow-in" points="0,0 10,0 5,10"/>
                <text class="sld-label" x="15.0" y="5.0">-85</text>
            </g>
            <g class="sld-reactive-power sld-feeder-info sld-in" id="idGH1_ARROW_REACTIVE" transform="translate(160.0,121.0)">
                <polygon class="sld-arrow-out" points="5,0 10,10 0,10"/>
                <polygon class="sld-arrow-in" points="0,0 10,0 5,10"/>
                <text class="sld-label" x="15.0" y="5.0">-681</text>
            </g>
            <g class="sld-disconnector sld-closed sld-vl300to500" id="idS1VL2_95_BBS1_95_GH1_95_DISCONNECTOR" transform="translate(161.0,248.0)">
                <path class="sld-sw-closed" d="M0,0 8,8 M8,0 0,8"/>
                <path class="sld-sw-open" d="M8,0 0,8"/>
            </g>
            <g class="sld-node sld-hidden-node sld-fictitious sld-vl300to500" id="idINTERNAL_95_S1VL2_95_6" transform="translate(161.0,218.0)">
                <circle cx="4" cy="4" r="4"/>
            </g>
            <g class="sld-disconnector sld-open sld-vl300to500" id="idS1VL2_95_BBS2_95_GH1_95_DISCONNECTOR" transform="translate(161.0,273.0)">
                <path class="sld-sw-closed" d="M0,0 8,8 M8,0 0,8"/>
                <path class="sld-sw-open" d="M8,0 0,8"/>
            </g>
            <g class="sld-breaker sld-closed sld-vl300to500" id="idS1VL2_95_GH1_95_BREAKER" transform="translate(155.0,172.0)">
                <path class="sld-sw-closed" d="M1,1 V19 H19 V1z M10,5 V15"/>
                <path class="sld-sw-open" d="M1,1 V19 H19 V1z M5,10 H15"/>
            </g>
            <g class="sld-node sld-hidden-node sld-fictitious sld-vl300to500" id="idINTERNAL_95_S1VL2_95_GH1" transform="translate(161.0,138.0)">
                <circle cx="4" cy="4" r="4"/>
            </g>
            <g class="sld-generator sld-top-feeder sld-vl300to500" id="idGH1" transform="translate(159.0,74.0)">
                <circle cx="6" cy="6" r="6"/>
                <path d="M6,6 A 6 40 0 0 0 2,6"/>
                <path d="M6,6 A 6 40 0 0 0 10,6"/>
                <text class="sld-label" id="GH1_N_LABEL" x="-5.0" y="-5.0">GH1</text>
            </g>
        </g>
        <g class="sld-extern-cell sld-cell-direction-bottom" id="idEXTERN_32_4">
            <g class="sld-wire sld-vl300to500" id="_95_S1VL2_95_S1VL2_95_BBS1_95_GH2_95_DISCONNECTOR_95_INTERNAL_95_S1VL2_95_8">
                <polyline points="215.0,252.0,215.0,307.0"/>
            </g>
            <g class="sld-wire sld-vl300to500" id="_95_S1VL2_95_S1VL2_95_BBS2_95_GH2_95_DISCONNECTOR_95_INTERNAL_95_S1VL2_95_8">
                <polyline points="215.0,277.0,215.0,307.0"/>
            </g>
            <g class="sld-wire sld-vl300to500" id="_95_S1VL2_95_INTERNAL_95_S1VL2_95_8_95_S1VL2_95_GH2_95_BREAKER">
                <polyline points="215.0,307.0,215.0,337.0"/>
            </g>
            <g class="sld-wire sld-vl300to500" id="_95_S1VL2_95_S1VL2_95_GH2_95_BREAKER_95_INTERNAL_95_S1VL2_95_GH2">
                <polyline points="215.0,357.0,215.0,387.0"/>
            </g>
            <g class="sld-wire sld-vl300to500" id="_95_S1VL2_95_INTERNAL_95_S1VL2_95_GH2_95_GH2">
                <polyline points="215.0,387.0,215.0,443.0"/>
            </g>
            <g class="sld-reactive-power sld-feeder-info sld-in" id="idGH2_ARROW_REACTIVE" transform="translate(210.0,418.0)">
                <polygon class="sld-arrow-out" points="5,0 10,10 0,10" transform="rotate(180.0,5.0,5.0)"/>
                <polygon class="sld-arrow-in" points="0,0 10,0 5,10" transform="rotate(180.0,5.0,5.0)"/>
                <text class="sld-label" x="15.0" y="5.0">-419</text>
            </g>
            <g class="sld-active-power sld-feeder-info sld-in" id="idGH2_ARROW_ACTIVE" transform="translate(210.0,398.0)">
                <polygon class="sld-arrow-out" points="5,0 10,10 0,10" transform="rotate(180.0,5.0,5.0)"/>
                <polygon class="sld-arrow-in" points="0,0 10,0 5,10" transform="rotate(180.0,5.0,5.0)"/>
                <text class="sld-label" x="15.0" y="5.0">-90</text>
            </g>
            <g class="sld-disconnector sld-closed sld-vl300to500" id="idS1VL2_95_BBS1_95_GH2_95_DISCONNECTOR" transform="translate(211.0,248.0)">
                <path class="sld-sw-closed" d="M0,0 8,8 M8,0 0,8"/>
                <path class="sld-sw-open" d="M8,0 0,8"/>
            </g>
            <g class="sld-node sld-hidden-node sld-fictitious sld-vl300to500" id="idINTERNAL_95_S1VL2_95_8" transform="translate(211.0,303.0)">
                <circle cx="4" cy="4" r="4"/>
            </g>
            <g class="sld-disconnector sld-open sld-vl300to500" id="idS1VL2_95_BBS2_95_GH2_95_DISCONNECTOR" transform="translate(211.0,273.0)">
                <path class="sld-sw-closed" d="M0,0 8,8 M8,0 0,8"/>
                <path class="sld-sw-open" d="M8,0 0,8"/>
            </g>
            <g class="sld-breaker sld-closed sld-vl300to500" id="idS1VL2_95_GH2_95_BREAKER" transform="translate(205.0,337.0)">
                <path class="sld-sw-closed" d="M1,1 V19 H19 V1z M10,5 V15"/>
                <path class="sld-sw-open" d="M1,1 V19 H19 V1z M5,10 H15"/>
            </g>
            <g class="sld-node sld-hidden-node sld-fictitious sld-vl300to500" id="idINTERNAL_95_S1VL2_95_GH2" transform="translate(211.0,383.0)">
                <circle cx="4" cy="4" r="4"/>
            </g>
            <g class="sld-generator sld-bottom-feeder sld-vl300to500" id="idGH2" transform="translate(209.0,443.0)">
                <circle cx="6" cy="6" r="6"/>
                <path d="M6,6 A 6 40 0 0 0 2,6"/>
                <path d="M6,6 A 6 40 0 0 0 10,6"/>
                <text class="sld-label" id="GH2_S_LABEL" x="-5.0" y="17.0">GH2</text>
            </g>
        </g>
        <g class="sld-extern-cell sld-cell-direction-top" id="idEXTERN_32_5">
            <g class="sld-wire sld-vl300to500" id="_95_S1VL2_95_S1VL2_95_BBS1_95_GH3_95_DISCONNECTOR_95_INTERNAL_95_S1VL2_95_10">
                <polyline points="265.0,252.0,265.0,222.0"/>
            </g>
            <g class="sld-wire sld-vl300to500" id="_95_S1VL2_95_S1VL2_95_BBS2_95_GH3_95_DISCONNECTOR_95_INTERNAL_95_S1VL2_95_10">
                <polyline points="265.0,277.0,265.0,222.0"/>
            </g>
            <g class="sld-wire sld-vl300to500" id="_95_S1VL2_95_INTERNAL_95_S1VL2_95_10_95_S1VL2_95_GH3_95_BREAKER">
                <polyline points="265.0,222.0,265.0,192.0"/>
            </g>
            <g class="sld-wire sld-vl300to500" id="_95_S1VL2_95_S1VL2_95_GH3_95_BREAKER_95_INTERNAL_95_S1VL2_95_GH3">
                <polyline points="265.0,172.0,265.0,142.0"/>
            </g>
            <g class="sld-wire sld-vl300to500" id="_95_S1VL2_95_INTERNAL_95_S1VL2_95_GH3_95_GH3">
                <polyline points="265.0,142.0,265.0,86.0"/>
            </g>
            <g class="sld-active-power sld-feeder-info sld-in" id="idGH3_ARROW_ACTIVE" transform="translate(260.0,101.0)">
                <polygon class="sld-arrow-out" points="5,0 10,10 0,10"/>
                <polygon class="sld-arrow-in" points="0,0 10,0 5,10"/>
                <text class="sld-label" x="15.0" y="5.0">-155</text>
            </g>
            <g class="sld-reactive-power sld-feeder-info sld-in" id="idGH3_ARROW_REACTIVE" transform="translate(260.0,121.0)">
                <polygon class="sld-arrow-out" points="5,0 10,10 0,10"/>
                <polygon class="sld-arrow-in" points="0,0 10,0 5,10"/>
                <text class="sld-label" x="15.0" y="5.0">-526</text>
            </g>
            <g class="sld-disconnector sld-closed sld-vl300to500" id="idS1VL2_95_BBS1_95_GH3_95_DISCONNECTOR" transform="translate(261.0,248.0)">
                <path class="sld-sw-closed" d="M0,0 8,8 M8,0 0,8"/>
                <path class="sld-sw-open" d="M8,0 0,8"/>
            </g>
            <g class="sld-node sld-hidden-node sld-fictitious sld-vl300to500" id="idINTERNAL_95_S1VL2_95_10" transform="translate(261.0,218.0)">
                <circle cx="4" cy="4" r="4"/>
            </g>
            <g class="sld-disconnector sld-open sld-vl300to500" id="idS1VL2_95_BBS2_95_GH3_95_DISCONNECTOR" transform="translate(261.0,273.0)">
                <path class="sld-sw-closed" d="M0,0 8,8 M8,0 0,8"/>
                <path class="sld-sw-open" d="M8,0 0,8"/>
            </g>
            <g class="sld-breaker sld-closed sld-vl300to500" id="idS1VL2_95_GH3_95_BREAKER" transform="translate(255.0,172.0)">
                <path class="sld-sw-closed" d="M1,1 V19 H19 V1z M10,5 V15"/>
                <path class="sld-sw-open" d="M1,1 V19 H19 V1z M5,10 H15"/>
            </g>
            <g class="sld-node sld-hidden-node sld-fictitious sld-vl300to500" id="idINTERNAL_95_S1VL2_95_GH3" transform="translate(261.0,138.0)">
                <circle cx="4" cy="4" r="4"/>
            </g>
            <g class="sld-generator sld-top-feeder sld-vl300to500" id="idGH3" transform="translate(259.0,74.0)">
                <circle cx="6" cy="6" r="6"/>
                <path d="M6,6 A 6 40 0 0 0 2,6"/>
                <path d="M6,6 A 6 40 0 0 0 10,6"/>
                <text class="sld-label" id="GH3_N_LABEL" x="-5.0" y="-5.0">GH3</text>
            </g>
        </g>
        <g class="sld-extern-cell sld-cell-direction-bottom" id="idEXTERN_32_6">
            <g class="sld-wire sld-vl300to500" id="_95_S1VL2_95_S1VL2_95_BBS1_95_LD2_95_DISCONNECTOR_95_INTERNAL_95_S1VL2_95_12">
                <polyline points="315.0,252.0,315.0,307.0"/>
            </g>
            <g class="sld-wire sld-vl300to500" id="_95_S1VL2_95_S1VL2_95_BBS2_95_LD2_95_DISCONNECTOR_95_INTERNAL_95_S1VL2_95_12">
                <polyline points="315.0,277.0,315.0,307.0"/>
            </g>
            <g class="sld-wire sld-vl300to500" id="_95_S1VL2_95_INTERNAL_95_S1VL2_95_12_95_S1VL2_95_LD2_95_BREAKER">
                <polyline points="315.0,307.0,315.0,337.0"/>
            </g>
            <g class="sld-wire sld-vl300to500" id="_95_S1VL2_95_S1VL2_95_LD2_95_BREAKER_95_INTERNAL_95_S1VL2_95_LD2">
                <polyline points="315.0,357.0,315.0,387.0"/>
            </g>
            <g class="sld-wire sld-vl300to500" id="_95_S1VL2_95_INTERNAL_95_S1VL2_95_LD2_95_LD2">
                <polyline points="315.0,387.0,315.0,444.5"/>
            </g>
            <g class="sld-reactive-power sld-feeder-info sld-out" id="idLD2_ARROW_REACTIVE" transform="translate(310.0,419.5)">
                <polygon class="sld-arrow-out" points="5,0 10,10 0,10" transform="rotate(180.0,5.0,5.0)"/>
                <polygon class="sld-arrow-in" points="0,0 10,0 5,10" transform="rotate(180.0,5.0,5.0)"/>
                <text class="sld-label" x="15.0" y="5.0">5</text>
            </g>
            <g class="sld-active-power sld-feeder-info sld-out" id="idLD2_ARROW_ACTIVE" transform="translate(310.0,399.5)">
                <polygon class="sld-arrow-out" points="5,0 10,10 0,10" transform="rotate(180.0,5.0,5.0)"/>
                <polygon class="sld-arrow-in" points="0,0 10,0 5,10" transform="rotate(180.0,5.0,5.0)"/>
                <text class="sld-label" x="15.0" y="5.0">60</text>
            </g>
            <g class="sld-disconnector sld-open sld-vl300to500" id="idS1VL2_95_BBS1_95_LD2_95_DISCONNECTOR" transform="translate(311.0,248.0)">
                <path class="sld-sw-closed" d="M0,0 8,8 M8,0 0,8"/>
                <path class="sld-sw-open" d="M8,0 0,8"/>
            </g>
            <g class="sld-node sld-hidden-node sld-fictitious sld-vl300to500" id="idINTERNAL_95_S1VL2_95_12" transform="translate(311.0,303.0)">
                <circle cx="4" cy="4" r="4"/>
            </g>
            <g class="sld-disconnector sld-closed sld-vl300to500" id="idS1VL2_95_BBS2_95_LD2_95_DISCONNECTOR" transform="translate(311.0,273.0)">
                <path class="sld-sw-closed" d="M0,0 8,8 M8,0 0,8"/>
                <path class="sld-sw-open" d="M8,0 0,8"/>
            </g>
            <g class="sld-breaker sld-closed sld-vl300to500" id="idS1VL2_95_LD2_95_BREAKER" transform="translate(305.0,337.0)">
                <path class="sld-sw-closed" d="M1,1 V19 H19 V1z M10,5 V15"/>
                <path class="sld-sw-open" d="M1,1 V19 H19 V1z M5,10 H15"/>
            </g>
            <g class="sld-node sld-hidden-node sld-fictitious sld-vl300to500" id="idINTERNAL_95_S1VL2_95_LD2" transform="translate(311.0,383.0)">
                <circle cx="4" cy="4" r="4"/>
            </g>
            <g class="sld-load sld-bottom-feeder sld-vl300to500" id="idLD2" transform="translate(307.0,444.5)">
                <rect height="9" width="16"/>
                <line x1="0" x2="16" y1="0" y2="9"/>
                <line x1="16" x2="0" y1="0" y2="9"/>
                <text class="sld-label" id="LD2_S_LABEL" x="-5.0" y="14.0">LD2</text>
            </g>
        </g>
        <g class="sld-extern-cell sld-cell-direction-top" id="idEXTERN_32_7">
            <g class="sld-wire sld-vl300to500" id="_95_S1VL2_95_S1VL2_95_BBS1_95_LD3_95_DISCONNECTOR_95_INTERNAL_95_S1VL2_95_14">
                <polyline points="365.0,252.0,365.0,222.0"/>
            </g>
            <g class="sld-wire sld-vl300to500" id="_95_S1VL2_95_S1VL2_95_BBS2_95_LD3_95_DISCONNECTOR_95_INTERNAL_95_S1VL2_95_14">
                <polyline points="365.0,277.0,365.0,222.0"/>
            </g>
            <g class="sld-wire sld-vl300to500" id="_95_S1VL2_95_INTERNAL_95_S1VL2_95_14_95_S1VL2_95_LD3_95_BREAKER">
                <polyline points="365.0,222.0,365.0,192.0"/>
            </g>
            <g class="sld-wire sld-vl300to500" id="_95_S1VL2_95_S1VL2_95_LD3_95_BREAKER_95_INTERNAL_95_S1VL2_95_LD3">
                <polyline points="365.0,172.0,365.0,142.0"/>
            </g>
            <g class="sld-wire sld-vl300to500" id="_95_S1VL2_95_INTERNAL_95_S1VL2_95_LD3_95_LD3">
                <polyline points="365.0,142.0,365.0,84.5"/>
            </g>
            <g class="sld-active-power sld-feeder-info sld-out" id="idLD3_ARROW_ACTIVE" transform="translate(360.0,99.5)">
                <polygon class="sld-arrow-out" points="5,0 10,10 0,10"/>
                <polygon class="sld-arrow-in" points="0,0 10,0 5,10"/>
                <text class="sld-label" x="15.0" y="5.0">60</text>
            </g>
            <g class="sld-reactive-power sld-feeder-info sld-out" id="idLD3_ARROW_REACTIVE" transform="translate(360.0,119.5)">
                <polygon class="sld-arrow-out" points="5,0 10,10 0,10"/>
                <polygon class="sld-arrow-in" points="0,0 10,0 5,10"/>
                <text class="sld-label" x="15.0" y="5.0">5</text>
            </g>
            <g class="sld-disconnector sld-open sld-vl300to500" id="idS1VL2_95_BBS1_95_LD3_95_DISCONNECTOR" transform="translate(361.0,248.0)">
                <path class="sld-sw-closed" d="M0,0 8,8 M8,0 0,8"/>
                <path class="sld-sw-open" d="M8,0 0,8"/>
            </g>
            <g class="sld-node sld-hidden-node sld-fictitious sld-vl300to500" id="idINTERNAL_95_S1VL2_95_14" transform="translate(361.0,218.0)">
                <circle cx="4" cy="4" r="4"/>
            </g>
            <g class="sld-disconnector sld-closed sld-vl300to500" id="idS1VL2_95_BBS2_95_LD3_95_DISCONNECTOR" transform="translate(361.0,273.0)">
                <path class="sld-sw-closed" d="M0,0 8,8 M8,0 0,8"/>
                <path class="sld-sw-open" d="M8,0 0,8"/>
            </g>
            <g class="sld-breaker sld-closed sld-vl300to500" id="idS1VL2_95_LD3_95_BREAKER" transform="translate(355.0,172.0)">
                <path class="sld-sw-closed" d="M1,1 V19 H19 V1z M10,5 V15"/>
                <path class="sld-sw-open" d="M1,1 V19 H19 V1z M5,10 H15"/>
            </g>
            <g class="sld-node sld-hidden-node sld-fictitious sld-vl300to500" id="idINTERNAL_95_S1VL2_95_LD3" transform="translate(361.0,138.0)">
                <circle cx="4" cy="4" r="4"/>
            </g>
            <g class="sld-load sld-top-feeder sld-vl300to500" id="idLD3" transform="translate(357.0,75.5)">
                <rect height="9" width="16"/>
                <line x1="0" x2="16" y1="0" y2="9"/>
                <line x1="16" x2="0" y1="0" y2="9"/>
                <text class="sld-label" id="LD3_N_LABEL" x="-5.0" y="-5.0">LD3</text>
            </g>
        </g>
        <g class="sld-extern-cell sld-cell-direction-bottom" id="idEXTERN_32_8">
            <g class="sld-wire sld-vl300to500" id="_95_S1VL2_95_S1VL2_95_BBS1_95_LD4_95_DISCONNECTOR_95_INTERNAL_95_S1VL2_95_16">
                <polyline points="415.0,252.0,415.0,307.0"/>
            </g>
            <g class="sld-wire sld-vl300to500" id="_95_S1VL2_95_S1VL2_95_BBS2_95_LD4_95_DISCONNECTOR_95_INTERNAL_95_S1VL2_95_16">
                <polyline points="415.0,277.0,415.0,307.0"/>
            </g>
            <g class="sld-wire sld-vl300to500" id="_95_S1VL2_95_INTERNAL_95_S1VL2_95_16_95_S1VL2_95_LD4_95_BREAKER">
                <polyline points="415.0,307.0,415.0,337.0"/>
            </g>
            <g class="sld-wire sld-vl300to500" id="_95_S1VL2_95_S1VL2_95_LD4_95_BREAKER_95_INTERNAL_95_S1VL2_95_LD4">
                <polyline points="415.0,357.0,415.0,387.0"/>
            </g>
            <g class="sld-wire sld-vl300to500" id="_95_S1VL2_95_INTERNAL_95_S1VL2_95_LD4_95_LD4">
                <polyline points="415.0,387.0,415.0,444.5"/>
            </g>
            <g class="sld-reactive-power sld-feeder-info sld-out" id="idLD4_ARROW_REACTIVE" transform="translate(410.0,419.5)">
                <polygon class="sld-arrow-out" points="5,0 10,10 0,10" transform="rotate(180.0,5.0,5.0)"/>
                <polygon class="sld-arrow-in" points="0,0 10,0 5,10" transform="rotate(180.0,5.0,5.0)"/>
                <text class="sld-label" x="15.0" y="5.0">5</text>
            </g>
            <g class="sld-active-power sld-feeder-info sld-out" id="idLD4_ARROW_ACTIVE" transform="translate(410.0,399.5)">
                <polygon class="sld-arrow-out" points="5,0 10,10 0,10" transform="rotate(180.0,5.0,5.0)"/>
                <polygon class="sld-arrow-in" points="0,0 10,0 5,10" transform="rotate(180.0,5.0,5.0)"/>
                <text class="sld-label" x="15.0" y="5.0">40</text>
            </g>
            <g class="sld-disconnector sld-open sld-vl300to500" id="idS1VL2_95_BBS1_95_LD4_95_DISCONNECTOR" transform="translate(411.0,248.0)">
                <path class="sld-sw-closed" d="M0,0 8,8 M8,0 0,8"/>
                <path class="sld-sw-open" d="M8,0 0,8"/>
            </g>
            <g class="sld-node sld-hidden-node sld-fictitious sld-vl300to500" id="idINTERNAL_95_S1VL2_95_16" transform="translate(411.0,303.0)">
                <circle cx="4" cy="4" r="4"/>
            </g>
            <g class="sld-disconnector sld-closed sld-vl300to500" id="idS1VL2_95_BBS2_95_LD4_95_DISCONNECTOR" transform="translate(411.0,273.0)">
                <path class="sld-sw-closed" d="M0,0 8,8 M8,0 0,8"/>
                <path class="sld-sw-open" d="M8,0 0,8"/>
            </g>
            <g class="sld-breaker sld-closed sld-vl300to500" id="idS1VL2_95_LD4_95_BREAKER" transform="translate(405.0,337.0)">
                <path class="sld-sw-closed" d="M1,1 V19 H19 V1z M10,5 V15"/>
                <path class="sld-sw-open" d="M1,1 V19 H19 V1z M5,10 H15"/>
            </g>
            <g class="sld-node sld-hidden-node sld-fictitious sld-vl300to500" id="idINTERNAL_95_S1VL2_95_LD4" transform="translate(411.0,383.0)">
                <circle cx="4" cy="4" r="4"/>
            </g>
            <g class="sld-load sld-bottom-feeder sld-vl300to500" id="idLD4" transform="translate(407.0,444.5)">
                <rect height="9" width="16"/>
                <line x1="0" x2="16" y1="0" y2="9"/>
                <line x1="16" x2="0" y1="0" y2="9"/>
                <text class="sld-label" id="LD4_S_LABEL" x="-5.0" y="14.0">LD4</text>
            </g>
        </g>
        <g class="sld-extern-cell sld-cell-direction-top" id="idEXTERN_32_9">
            <g class="sld-wire sld-vl300to500" id="_95_S1VL2_95_S1VL2_95_BBS1_95_SHUNT_95_DISCONNECTOR_95_INTERNAL_95_S1VL2_95_18">
                <polyline points="465.0,252.0,465.0,222.0"/>
            </g>
            <g class="sld-wire sld-vl300to500" id="_95_S1VL2_95_S1VL2_95_BBS2_95_SHUNT_95_DISCONNECTOR_95_INTERNAL_95_S1VL2_95_18">
                <polyline points="465.0,277.0,465.0,222.0"/>
            </g>
            <g class="sld-wire sld-vl300to500" id="_95_S1VL2_95_INTERNAL_95_S1VL2_95_18_95_S1VL2_95_SHUNT_95_BREAKER">
                <polyline points="465.0,222.0,465.0,192.0"/>
            </g>
            <g class="sld-wire sld-vl300to500" id="_95_S1VL2_95_S1VL2_95_SHUNT_95_BREAKER_95_INTERNAL_95_S1VL2_95_SHUNT">
                <polyline points="465.0,172.0,465.0,142.0"/>
            </g>
            <g class="sld-wire sld-vl300to500" id="_95_S1VL2_95_INTERNAL_95_S1VL2_95_SHUNT_95_SHUNT">
                <polyline points="465.0,142.0,465.0,84.0"/>
            </g>
            <g class="sld-active-power sld-feeder-info sld-in" id="idSHUNT_ARROW_ACTIVE" transform="translate(460.0,99.0)">
                <polygon class="sld-arrow-out" points="5,0 10,10 0,10"/>
                <polygon class="sld-arrow-in" points="0,0 10,0 5,10"/>
                <text class="sld-label" x="15.0" y="5.0">0</text>
            </g>
            <g class="sld-reactive-power sld-feeder-info sld-out" id="idSHUNT_ARROW_REACTIVE" transform="translate(460.0,119.0)">
                <polygon class="sld-arrow-out" points="5,0 10,10 0,10"/>
                <polygon class="sld-arrow-in" points="0,0 10,0 5,10"/>
                <text class="sld-label" x="15.0" y="5.0">1,920</text>
            </g>
            <g class="sld-disconnector sld-closed sld-vl300to500" id="idS1VL2_95_BBS1_95_SHUNT_95_DISCONNECTOR" transform="translate(461.0,248.0)">
                <path class="sld-sw-closed" d="M0,0 8,8 M8,0 0,8"/>
                <path class="sld-sw-open" d="M8,0 0,8"/>
            </g>
            <g class="sld-node sld-hidden-node sld-fictitious sld-vl300to500" id="idINTERNAL_95_S1VL2_95_18" transform="translate(461.0,218.0)">
                <circle cx="4" cy="4" r="4"/>
            </g>
            <g class="sld-disconnector sld-open sld-vl300to500" id="idS1VL2_95_BBS2_95_SHUNT_95_DISCONNECTOR" transform="translate(461.0,273.0)">
                <path class="sld-sw-closed" d="M0,0 8,8 M8,0 0,8"/>
                <path class="sld-sw-open" d="M8,0 0,8"/>
            </g>
            <g class="sld-breaker sld-closed sld-vl300to500" id="idS1VL2_95_SHUNT_95_BREAKER" transform="translate(455.0,172.0)">
                <path class="sld-sw-closed" d="M1,1 V19 H19 V1z M10,5 V15"/>
                <path class="sld-sw-open" d="M1,1 V19 H19 V1z M5,10 H15"/>
            </g>
            <g class="sld-node sld-hidden-node sld-fictitious sld-vl300to500" id="idINTERNAL_95_S1VL2_95_SHUNT" transform="translate(461.0,138.0)">
                <circle cx="4" cy="4" r="4"/>
            </g>
            <g class="sld-inductor sld-top-feeder sld-vl300to500" id="idSHUNT" transform="translate(457.5,75.5)">
                <path d="M5,5 A 5 20 0 0 0 0,5"/>
                <path d="M10,5 A 5 20 0 0 0 5,5"/>
                <path d="M15,5 A 5 20 0 0 0 10,5"/>
                <text class="sld-label" id="SHUNT_N_LABEL" x="-5.0" y="-5.0">SHUNT</text>
            </g>
        </g>
        <g class="sld-extern-cell sld-cell-direction-top" id="idEXTERN_32_10">
            <g class="sld-wire sld-vl300to500" id="_95_S1VL2_95_S1VL2_95_BBS1_95_LCC1_95_DISCONNECTOR_95_INTERNAL_95_S1VL2_95_20">
                <polyline points="565.0,252.0,565.0,222.0"/>
            </g>
            <g class="sld-wire sld-vl300to500" id="_95_S1VL2_95_S1VL2_95_BBS2_95_LCC1_95_DISCONNECTOR_95_INTERNAL_95_S1VL2_95_20">
                <polyline points="565.0,277.0,565.0,222.0"/>
            </g>
            <g class="sld-wire sld-vl300to500" id="_95_S1VL2_95_INTERNAL_95_S1VL2_95_20_95_S1VL2_95_LCC1_95_BREAKER">
                <polyline points="565.0,222.0,565.0,192.0"/>
            </g>
            <g class="sld-wire sld-vl300to500" id="_95_S1VL2_95_S1VL2_95_LCC1_95_BREAKER_95_INTERNAL_95_S1VL2_95_LCC1">
                <polyline points="565.0,172.0,565.0,142.0"/>
            </g>
            <g class="sld-wire sld-vl300to500" id="_95_S1VL2_95_INTERNAL_95_S1VL2_95_LCC1_95_LCC1">
                <polyline points="565.0,142.0,565.0,86.0"/>
            </g>
            <g class="sld-active-power sld-feeder-info sld-out" id="idLCC1_ARROW_ACTIVE" transform="translate(560.0,101.0)">
                <polygon class="sld-arrow-out" points="5,0 10,10 0,10"/>
                <polygon class="sld-arrow-in" points="0,0 10,0 5,10"/>
                <text class="sld-label" x="15.0" y="5.0">80</text>
            </g>
            <g class="sld-reactive-power sld-feeder-info sld-out" id="idLCC1_ARROW_REACTIVE" transform="translate(560.0,121.0)">
                <polygon class="sld-arrow-out" points="5,0 10,10 0,10"/>
                <polygon class="sld-arrow-in" points="0,0 10,0 5,10"/>
                <text class="sld-label" x="15.0" y="5.0">107</text>
            </g>
            <g class="sld-disconnector sld-open sld-vl300to500" id="idS1VL2_95_BBS1_95_LCC1_95_DISCONNECTOR" transform="translate(561.0,248.0)">
                <path class="sld-sw-closed" d="M0,0 8,8 M8,0 0,8"/>
                <path class="sld-sw-open" d="M8,0 0,8"/>
            </g>
            <g class="sld-node sld-hidden-node sld-fictitious sld-vl300to500" id="idINTERNAL_95_S1VL2_95_20" transform="translate(561.0,218.0)">
                <circle cx="4" cy="4" r="4"/>
            </g>
            <g class="sld-disconnector sld-closed sld-vl300to500" id="idS1VL2_95_BBS2_95_LCC1_95_DISCONNECTOR" transform="translate(561.0,273.0)">
                <path class="sld-sw-closed" d="M0,0 8,8 M8,0 0,8"/>
                <path class="sld-sw-open" d="M8,0 0,8"/>
            </g>
            <g class="sld-breaker sld-closed sld-vl300to500" id="idS1VL2_95_LCC1_95_BREAKER" transform="translate(555.0,172.0)">
                <path class="sld-sw-closed" d="M1,1 V19 H19 V1z M10,5 V15"/>
                <path class="sld-sw-open" d="M1,1 V19 H19 V1z M5,10 H15"/>
            </g>
            <g class="sld-node sld-hidden-node sld-fictitious sld-vl300to500" id="idINTERNAL_95_S1VL2_95_LCC1" transform="translate(561.0,138.0)">
                <circle cx="4" cy="4" r="4"/>
            </g>
            <g class="sld-lcc sld-top-feeder" id="idLCC1" transform="translate(557.0,76.0)">
                <text class="sld-vl300to500" x="-15.5" y="6.6">AC / DC - LCC</text>
                <text class="sld-label" id="LCC1_N_LABEL" x="-5.0" y="-5.0">HVDC2</text>
            </g>
        </g>
    </g>
</svg>
